<?xml version="1.0" standalone="no"?>
<!DOCTYPE svg PUBLIC "-//W3C//DTD SVG 20010904//EN"
 "http://www.w3.org/TR/2001/REC-SVG-20010904/DTD/svg10.dtd">
<svg version="1.0" xmlns="http://www.w3.org/2000/svg"
 width="145.000000pt" height="145.000000pt" viewBox="0 0 145.000000 145.000000"
 preserveAspectRatio="xMidYMid meet">
<metadata>
Created by potrace 1.11, written by Peter Selinger 2001-2013
</metadata>
<g transform="translate(0.000000,145.000000) scale(0.100000,-0.100000)"
fill="#000000" stroke="none">
<path d="M0 725 l0 -725 725 0 725 0 0 725 0 725 -725 0 -725 0 0 -725z m1318
650 c12 -6 4 -11 -33 -21 l-50 -13 62 5 62 6 5 -34 c4 -18 5 -234 4 -479 -3
-373 -5 -449 -18 -463 -12 -16 -12 -19 3 -28 16 -8 18 -26 16 -148 -1 -123 -3
-139 -19 -143 -34 -9 -455 4 -477 15 -12 6 -30 7 -40 3 -18 -7 -733 -9 -740
-1 -7 7 -5 488 3 548 4 31 3 65 -1 75 -4 10 -7 164 -6 343 1 321 2 325 22 322
11 -1 26 4 33 10 10 10 138 13 584 11 315 0 580 -4 590 -8z"/>
<path d="M463 1321 c90 -19 52 -26 -158 -26 l-120 0 -3 -27 c-3 -29 -16 -37
-26 -15 -3 6 -4 -1 0 -17 11 -59 13 -361 2 -404 -16 -66 0 -592 18 -592 8 0
14 -6 14 -14 0 -7 10 -26 21 -41 18 -22 20 -29 8 -36 -8 -5 93 -9 251 -10 337
-2 331 -2 338 6 4 4 9 42 10 84 l4 78 -42 35 c-23 20 -69 46 -103 59 -76 27
-170 81 -216 123 -37 34 -85 105 -77 113 3 3 -15 42 -38 87 -40 74 -44 89 -51
181 -14 181 -14 236 -3 229 7 -4 8 4 3 25 -10 48 9 37 35 -20 27 -56 78 -107
127 -128 18 -7 31 -17 28 -21 -5 -9 39 -30 64 -30 24 0 166 -93 174 -114 4 -9
1 -16 -6 -16 -7 -1 -4 -6 6 -14 24 -18 83 -158 108 -253 15 -60 20 -118 22
-253 l3 -175 59 1 c33 0 83 2 110 3 107 7 165 2 165 -15 0 -11 8 -14 28 -12
24 3 28 9 36 50 5 27 13 48 18 48 4 0 8 7 8 16 0 11 6 13 19 9 18 -5 19 -2 14
32 -3 21 -10 40 -14 43 -5 3 -6 24 -4 45 5 47 6 203 2 368 -1 90 -5 120 -16
127 -12 7 -15 49 -14 243 l1 234 -57 -10 c-53 -8 -609 -3 -731 8 -45 3 -48 3
-17 -4z m622 -223 c8 -18 24 -47 35 -64 20 -31 43 -119 42 -162 0 -30 -40
-129 -66 -166 -12 -15 -51 -60 -87 -100 -36 -39 -79 -95 -94 -124 -17 -30 -32
-49 -37 -44 -17 17 -29 146 -23 226 9 106 34 166 102 240 62 68 103 145 103
194 0 17 2 32 5 32 3 0 12 -15 20 -32z m-41 -929 l41 -1 -38 -8 c-21 -4 -50
-6 -65 -5 -15 1 -46 3 -70 3 -29 1 -41 6 -36 13 4 8 27 9 67 5 33 -3 78 -7
101 -7z"/>
<path d="M970 729 c-7 -11 -10 -23 -7 -25 2 -2 9 7 15 21 14 30 7 33 -8 4z"/>
<path d="M141 1044 c0 -11 3 -14 6 -6 3 7 2 16 -1 19 -3 4 -6 -2 -5 -13z"/>
<path d="M434 825 c9 -14 23 -36 32 -50 9 -13 32 -35 53 -47 20 -13 60 -42 89
-66 30 -25 49 -35 43 -24 -15 28 -79 82 -115 97 -17 8 -48 36 -70 64 -40 53
-60 69 -32 26z"/>
</g>
</svg>
