<?xml version="1.0" encoding="UTF-8" standalone="no"?>
<!DOCTYPE svg PUBLIC "-//W3C//DTD SVG 1.1//EN" "http://www.w3.org/Graphics/SVG/1.1/DTD/svg11.dtd">
<svg width="100%" height="100%" viewBox="0 0 5274 1642" version="1.1" xmlns="http://www.w3.org/2000/svg" xmlns:xlink="http://www.w3.org/1999/xlink" xml:space="preserve" xmlns:serif="http://www.serif.com/" style="fill-rule:evenodd;clip-rule:evenodd;stroke-linejoin:round;stroke-miterlimit:2;">
    <g transform="matrix(1,0,0,1,-43.052892,-103.019896)">
        <path d="M1205,1602.4C913.5,1829.2 344.7,1709.4 168.9,1424.3C-142.7,918.9 118,-101.5 1021.9,139.2C1623,299.3 1601.2,1294.1 1205,1602.4ZM1417,869.5C1429.1,577.2 1241.9,207.5 862.9,174C694.5,159.1 518.5,177.6 389.9,277.8C252.5,384.8 178.4,575 152.3,728.8C148.5,751.3 135,833.7 138.9,869.5M154,942.7C125.5,959 156.8,1149.4 172.7,1191.4C185.1,1204.6 195.1,1200.6 206.8,1191.6C241.9,1164.6 283.2,1150.7 328.6,1137C477,1092.3 677.6,1100.7 723.3,945M1426.2,945L819.3,945L807.7,942.7C894.3,1125.8 1129.3,1016.8 1366.5,1156.1L1384.6,1164.9C1400,1131.9 1400.7,1107.5 1402.7,1077.4C1408.3,993.9 1421.5,928.3 1403.9,894.5M1006.3,1457.1C1073,1532 1184.6,1537.2 1254.7,1465.9C1302.7,1417.1 1302.5,1360.3 1199.4,1273C1069.1,1162.6 1073.4,1170.3 925.5,1096.7C881.3,1074.7 844.7,1032.2 806,1004.8C779.9,1180.1 902.5,1340.7 1006.2,1457.1L1006.3,1457.1ZM721.7,1019.1L709.7,1032.2C639,1109.2 550.6,1126 486,1170.4C413.1,1220.5 280.4,1500.2 409.2,1549.8C514.8,1367.9 742.5,1265.7 734.2,1051.2C732.3,1001.9 742.9,986.3 721.6,1019.1L721.7,1019.1ZM724.9,1657.5C889.7,1695.8 1009.4,1617.6 856.4,1331.9L755.5,1162.6C744.1,1251.3 709.4,1278.1 659,1375.5C640.5,1411.2 612.8,1631.5 725,1657.6L724.9,1657.5ZM400.8,1177C239.7,1211.5 144.7,1293.6 274.3,1420.8L400.8,1177ZM1110.5,1120.3C1076.9,1140.3 1223.2,1229.2 1257.7,1260.6C1292.3,1292 1327.3,1309.3 1327.3,1309.3C1327.3,1309.3 1353.1,1317.3 1360.4,1284.2C1376.1,1214 1365.6,1221.3 1277.9,1186.9" style="fill:rgb(0,121,140);fill-rule:nonzero;"/>
        <rect x="1721.6" y="347.1" width="3497.8" height="770" style="fill:none;"/>
        <path d="M1977.9,699.5C1977.9,776.7 2019.4,758.6 2019.4,789.7C2019.4,820.8 2010.3,807.9 1983.1,807.9L1879.9,807.9C1853.9,807.9 1843.6,803.4 1843.6,789.7C1843.6,758.6 1886.4,776.7 1886.4,699.5L1886.4,425.7C1886.4,406.2 1878,397.1 1857.2,397.1C1814.4,397.1 1802,419.8 1778.7,463.9C1770.9,480.1 1764.4,487.9 1754.7,487.9C1745,487.9 1737.8,476.9 1738.5,459.3C1739.8,423.6 1743,399 1748.2,380.8C1753.4,361.3 1763.1,353.5 1802.7,353.5L2061.6,353.5C2101.2,353.5 2110.9,361.3 2115.5,380.1C2120.7,398.9 2124.6,423.6 2125.2,459.3C2125.8,476.2 2123.3,487.9 2109.6,487.9C2095.9,487.9 2093.4,480.1 2084.9,463.9C2062.2,419.1 2049.2,396.4 2006.4,396.4C1963.6,396.4 1977.8,406.1 1977.8,425.6L1977.8,699.4L1977.9,699.5Z" style="fill:rgb(0,121,140);fill-rule:nonzero;"/>
        <path d="M2397.1,545.7C2397.1,571.7 2383.5,588.5 2365.3,589.2C2333.5,589.2 2334.8,555.5 2303.7,555.5C2272.6,555.5 2258.9,582.8 2258.9,630.1L2258.9,717.7C2258.9,778 2290,763.1 2290,791.7C2290,820.3 2279.6,807.9 2261.4,807.9L2168.6,807.9C2150.4,807.9 2138.7,804 2138.7,791C2138.7,763.1 2171.1,778 2171.1,717.7L2171.1,594.4C2171.1,576.2 2164,564.6 2151,554.8C2144.5,550.3 2138.7,545.7 2138.7,536.6C2138.7,527.5 2143.9,521.7 2159.5,514.5C2183.5,502.8 2223.7,491.1 2234.1,490.5C2245.1,490.5 2249.7,497 2249.7,510L2249.7,548.3C2273.7,508.7 2308.1,489.9 2339.3,489.9C2370.5,489.9 2397.1,513.9 2397.1,545.7Z" style="fill:rgb(0,121,140);fill-rule:nonzero;"/>
        <path d="M2767,768.9C2767,791 2731.3,813 2700.2,813C2669.1,813 2654.8,797.4 2645,765C2614.5,798.7 2570.4,813.7 2531.4,813.7C2459.4,813.7 2412.6,772.2 2412.6,718.3C2412.6,664.4 2467.1,611.2 2559.3,611.2C2651.5,611.2 2589.2,613.1 2611.2,616.4C2599.5,575.5 2586.5,543.1 2537.9,543.1C2489.3,543.1 2482.1,555.4 2458.7,568.4C2446.4,576.2 2432.7,566.5 2442.5,550.2C2458.7,522.9 2508,489.9 2570.3,489.9C2632.6,489.9 2678,547 2692.3,600.9L2724.1,722.9C2731.2,749.5 2740.3,758.6 2754.6,757.9C2761.7,757.9 2766.9,761.1 2766.9,768.9L2767,768.9ZM2633.9,716.3C2632,705.3 2626.1,689 2620.3,666.3C2615.8,651.4 2590.4,644.9 2569.7,644.9C2523.6,644.9 2496.4,668.3 2496.4,704C2497,741 2524.3,768.2 2566.5,768.2C2608.7,768.2 2639.2,742.9 2634,716.3L2633.9,716.3Z" style="fill:rgb(0,121,140);fill-rule:nonzero;"/>
        <path d="M3153.7,734.5C3162.1,774.1 3188.1,768.9 3188.1,791.6C3188.1,814.3 3177.1,807.8 3159.5,807.8L3068.7,807.8C3050.5,807.8 3039.5,803.9 3039.5,790.9C3039.5,769.5 3073.2,771.4 3064.8,729.3L3044.7,626.8C3036.9,585.9 3024.6,545.7 2981.8,546.3C2947.4,546.3 2916.3,577.4 2916.3,634.6L2916.3,717.7C2916.3,778 2947.4,763.1 2947.4,791.7C2947.4,820.3 2937,807.9 2918.8,807.9L2826,807.9C2807.8,807.9 2796.1,804 2796.1,791C2796.1,763.1 2828.5,778 2828.5,717.7L2828.5,594.4C2828.5,576.2 2821.4,564.6 2808.4,554.8C2801.9,550.3 2796.1,545.7 2796.1,536.6C2796.1,527.5 2801.3,521.7 2816.9,514.5C2840.9,502.8 2881.1,491.1 2891.5,490.5C2902.5,490.5 2907.1,497 2907.1,510L2907.1,548.9C2931.8,510 2971.3,489.8 3012.9,489.8C3086.9,489.8 3114.8,537.8 3131.7,623.5L3153.8,734.5L3153.7,734.5Z" style="fill:rgb(0,121,140);fill-rule:nonzero;"/>
        <path d="M3239.4,788.4C3228.4,761.8 3221.2,743.6 3215.4,721.6C3212.2,707.3 3216,700.2 3223.8,696.3C3232.9,691.8 3243.3,698.9 3257.5,711.9C3299.7,753.4 3336,777.4 3374.3,777.4C3412.6,777.4 3411.9,765.1 3411.9,746.3C3411.9,727.5 3378.2,705.4 3321.7,681.4C3271.7,660 3224.4,634.7 3224.4,580.8C3224.4,526.9 3282.2,490 3332.8,490C3383.4,490 3391.2,498.4 3410,499.1C3423.6,499.1 3425.6,490 3437.3,490C3449,490 3452.2,497.1 3462.6,515.3C3471,531.5 3474.9,540.6 3480.8,554.2C3487.3,571.7 3484.7,580.8 3476.3,584.7C3464,591.2 3452.9,579.5 3432.2,564.6C3406.9,546.4 3373.8,527.6 3345.2,527.6C3316.6,527.6 3305.6,541.9 3305.6,557.5C3305.6,580.2 3332.9,593.8 3386.1,616.6C3454.9,647.1 3499,673.1 3499,719.8C3499,766.5 3445.1,814.5 3377,814.5C3308.9,814.5 3303,801.5 3289.4,801.5C3275.8,801.5 3276.4,814.5 3264.1,814.5C3251.8,814.5 3247.9,809.3 3239.4,788.5L3239.4,788.4Z" style="fill:rgb(0,121,140);fill-rule:nonzero;"/>
        <path d="M3576.2,598.9C3576.2,554.1 3545.1,558.7 3545.1,539.2C3545.1,519.7 3549.6,525.6 3565.2,518.4C3592.5,506.1 3639.2,490.5 3649.6,490.5C3660,489.9 3664.5,496.3 3664.5,510L3663.9,598.9L3663.9,717.7C3663.9,778 3695.7,763.1 3695.7,791.7C3695.7,820.3 3684.7,807.9 3667.1,807.9L3574.3,807.9C3555.5,807.9 3544.4,804 3544.4,791C3544.4,763.1 3576.2,778 3576.2,717.7L3576.2,598.9ZM3559.3,414.6C3559.9,384.7 3594.3,351.7 3627.4,353C3650.8,353.6 3668.3,371.8 3668.3,393.9C3667,425.7 3632,454.9 3598.2,454.2C3573.5,453.6 3558.6,436 3559.3,414.6Z" style="fill:rgb(0,121,140);fill-rule:nonzero;"/>
        <path d="M3954.5,748.1C3944.8,777.3 3911,814.3 3856.5,814.3C3802,814.3 3764.4,778 3764.4,711.8L3764.4,678.1C3764.4,620.3 3765,571 3766.3,537.3L3748.8,537.3C3731.3,537.3 3726.1,531.5 3726.1,520.4C3726.1,509.3 3728.7,504.8 3735.8,498.3C3759.8,473.6 3791,448.3 3817.6,432.1C3832.5,423.7 3837.7,423 3841.6,423C3850.7,423 3856.5,431.4 3855.9,441.2C3854,458.7 3853.3,476.2 3852.7,496.4L3916.9,496.4C3929.2,496.4 3939.6,499.6 3935.7,519.1C3931.8,538.6 3920.8,541.8 3907.8,541.2L3852,539.3C3852,575 3852,619.1 3851.4,678.2C3850.8,736 3859.8,753.5 3889,753.5C3918.2,753.5 3922.1,745.1 3935.7,734.7C3948,725.6 3959.1,734.7 3954.5,748.3L3954.5,748.1Z" style="fill:rgb(0,121,140);fill-rule:nonzero;"/>
        <path d="M4022.6,598.9C4022.6,554.1 3991.5,558.7 3991.5,539.2C3991.5,519.7 3996,525.6 4011.6,518.4C4038.9,506.1 4085.6,490.5 4096,490.5C4106.4,489.9 4110.9,496.3 4110.9,510L4110.3,598.9L4110.3,717.7C4110.3,778 4142.1,763.1 4142.1,791.7C4142.1,820.3 4131.1,807.9 4113.5,807.9L4020.7,807.9C4001.9,807.9 3990.8,804 3990.8,791C3990.8,763.1 4022.6,778 4022.6,717.7L4022.6,598.9ZM4005.8,414.6C4006.4,384.7 4040.8,351.7 4073.9,353C4097.3,353.6 4114.8,371.8 4114.8,393.9C4113.5,425.7 4078.5,454.9 4044.7,454.2C4020,453.6 4005.1,436 4005.8,414.6Z" style="fill:rgb(0,121,140);fill-rule:nonzero;"/>
        <path d="M4184.2,664.4C4184.2,567.1 4260.1,489.8 4363.3,489.8C4466.5,489.8 4514.5,556 4514.5,642.3C4514.5,728.6 4439.9,814.3 4336.7,814.3C4233.5,814.3 4184.2,756.5 4184.2,664.4ZM4428.2,687.8C4428.2,612.5 4389.9,532.7 4334.1,532.7C4278.3,532.7 4269.9,576.8 4269.9,622.9C4269.9,698.8 4308.8,771.5 4364.6,771.5C4420.4,771.5 4428.2,732.6 4428.2,687.8Z" style="fill:rgb(0,121,140);fill-rule:nonzero;"/>
        <path d="M4916.8,734.5C4925.2,774.1 4951.2,768.9 4951.2,791.6C4951.2,814.3 4940.2,807.8 4922.6,807.8L4831.8,807.8C4813.6,807.8 4802.6,803.9 4802.6,790.9C4802.6,769.5 4836.3,771.4 4827.9,729.3L4807.8,626.8C4800,585.9 4787.7,545.7 4744.9,546.3C4710.5,546.3 4679.4,577.4 4679.4,634.6L4679.4,717.7C4679.4,778 4710.5,763.1 4710.5,791.7C4710.5,820.3 4700.1,807.9 4681.9,807.9L4589.1,807.9C4570.9,807.9 4559.2,804 4559.2,791C4559.2,763.1 4591.6,778 4591.6,717.7L4591.6,594.4C4591.6,576.2 4584.5,564.6 4571.5,554.8C4565,550.3 4559.2,545.7 4559.2,536.6C4559.2,527.5 4564.4,521.7 4580,514.5C4604,502.8 4644.2,491.1 4654.6,490.5C4665.6,490.5 4670.2,497 4670.2,510L4670.2,548.9C4694.9,510 4734.4,489.8 4776,489.8C4850,489.8 4877.9,537.8 4894.8,623.5L4916.9,734.5L4916.8,734.5Z" style="fill:rgb(0,121,140);fill-rule:nonzero;"/>
        <rect x="1819" y="963.3" width="3497.8" height="770" style="fill:none;"/>
        <path d="M2266.8,970.4C2288.9,970.4 2297.3,973.6 2297.3,987.3C2297.3,1008.7 2262.3,1006.8 2262.3,1050.9L2262.3,1396.8C2262.3,1416.9 2255.2,1424.1 2238.9,1424.1C2222.6,1424.1 2215.5,1415 2215.5,1404C2215.5,1393 2209,1376.7 2195.4,1361.8L1925.4,1085.4L1926.7,1343C1926.7,1387.1 1961.7,1384.5 1961.7,1407.2C1961.7,1429.9 1952.6,1423.4 1931.8,1423.4L1874.7,1423.4C1852.6,1423.4 1844.2,1419.5 1844.2,1406.5C1844.2,1385.1 1879.2,1387 1879.2,1342.9L1879.2,1080.1C1879.2,995.7 1836.4,1021.7 1836.4,988C1836.4,954.3 1846.8,969.8 1872.7,969.8L1924.6,969.8C1938.2,969.8 1946,975.6 1955.7,985.4L2214.6,1253.4L2214.6,1050.9C2214.6,1006.8 2178.9,1009.4 2178.9,986.7C2178.9,964 2188.6,970.5 2209.4,970.5L2266.5,970.5L2266.8,970.4Z" style="fill:rgb(0,121,140);fill-rule:nonzero;"/>
        <path d="M2636.7,1340.9C2623.7,1377.2 2569.9,1430.5 2483.6,1430.5C2397.3,1430.5 2329.2,1366.9 2329.2,1278C2329.2,1189.1 2406.4,1106 2497.3,1106C2588.2,1106 2619.9,1152.7 2629,1208.5C2630.9,1218.9 2626.4,1228 2614.1,1233.8C2547.9,1263.7 2495.3,1283.8 2427.9,1308.4C2441.5,1338.2 2471.4,1367.5 2521.3,1367.5C2571.2,1367.5 2592.7,1347.4 2616,1324.7C2629,1311.7 2643.3,1322.1 2636.8,1340.9L2636.7,1340.9ZM2410.9,1230.6C2410.9,1244.9 2412.8,1260.4 2416.1,1271.5C2453.7,1258.5 2490.7,1245.5 2525.8,1230.6C2536.8,1225.4 2545.3,1220.9 2540.7,1204C2531.6,1166.4 2499.8,1143 2468.7,1148.8C2431.1,1153.3 2410.9,1189 2410.9,1230.6Z" style="fill:rgb(0,121,140);fill-rule:nonzero;"/>
        <path d="M2893,1364.3C2883.3,1393.5 2849.5,1430.5 2795,1430.5C2740.5,1430.5 2702.9,1394.2 2702.9,1328L2702.9,1294.3C2702.9,1236.5 2703.5,1187.2 2704.8,1153.5L2687.3,1153.5C2669.8,1153.5 2664.6,1147.7 2664.6,1136.6C2664.6,1125.5 2667.2,1121 2674.3,1114.5C2698.3,1089.8 2729.5,1064.5 2756.1,1048.3C2771,1039.9 2776.2,1039.2 2780.1,1039.2C2789.2,1039.2 2795,1047.6 2794.4,1057.4C2792.5,1074.9 2791.8,1092.4 2791.2,1112.6L2855.4,1112.6C2867.7,1112.6 2878.1,1115.8 2874.2,1135.3C2870.3,1154.8 2859.3,1158 2846.3,1157.4L2790.5,1155.5C2790.5,1191.2 2790.5,1235.3 2789.9,1294.4C2789.3,1352.2 2798.3,1369.7 2827.5,1369.7C2856.7,1369.7 2860.6,1361.3 2874.2,1350.9C2886.5,1341.8 2897.6,1350.9 2893,1364.5L2893,1364.3Z" style="fill:rgb(0,121,140);fill-rule:nonzero;"/>
        <path d="M3403.7,1111.9C3421.9,1111.9 3432.9,1115.8 3432.9,1128.8C3432.9,1152.8 3406.9,1143.7 3384.2,1196.3L3294.6,1404.6C3290.7,1413 3286.2,1420.2 3261.5,1424.7C3238.8,1428.6 3230.4,1426 3226.5,1415L3157.1,1228.1L3090.9,1404.6C3087.7,1413 3077.9,1420.2 3059.8,1424.7C3035.1,1430.5 3026.7,1426 3022.2,1415L2934.6,1197C2913.8,1143.8 2887.2,1152.9 2887.2,1128.2C2887.2,1103.5 2898.2,1112 2915.8,1112L3015.1,1112C3033.3,1112 3045,1115.9 3045,1128.9C3045,1152.9 3007.4,1143.8 3028.8,1197L3080.1,1324.2L3152.8,1130.8C3156,1122.4 3159.9,1115.9 3176.8,1112C3198.9,1106.8 3206.6,1111.4 3210.5,1122.4L3287.7,1324.9L3342.9,1196.4C3365,1143.8 3329.9,1152.9 3329.9,1128.3C3329.9,1103.7 3340.3,1112.1 3357.8,1112.1L3403.9,1112.1L3403.7,1111.9Z" style="fill:rgb(0,121,140);fill-rule:nonzero;"/>
        <path d="M3438.1,1280.6C3438.1,1183.3 3514,1106 3617.2,1106C3720.4,1106 3768.4,1172.2 3768.4,1258.5C3768.4,1344.8 3693.8,1430.5 3590.6,1430.5C3487.4,1430.5 3438.1,1372.7 3438.1,1280.6ZM3682.1,1303.9C3682.1,1228.6 3643.8,1148.8 3588,1148.8C3532.2,1148.8 3523.8,1192.9 3523.8,1239C3523.8,1314.9 3562.7,1387.6 3618.5,1387.6C3674.3,1387.6 3682.1,1348.7 3682.1,1303.9Z" style="fill:rgb(0,121,140);fill-rule:nonzero;"/>
        <path d="M4071.5,1161.8C4071.5,1187.8 4057.9,1204.6 4039.7,1205.3C4007.9,1205.3 4009.2,1171.6 3978.1,1171.6C3947,1171.6 3933.3,1198.9 3933.3,1246.2L3933.3,1333.8C3933.3,1394.1 3964.4,1379.2 3964.4,1407.8C3964.4,1436.4 3954,1424 3935.8,1424L3843,1424C3824.8,1424 3813.2,1420.1 3813.2,1407.1C3813.2,1379.2 3845.6,1394.1 3845.6,1333.8L3845.6,1210.5C3845.6,1192.3 3838.5,1180.7 3825.5,1170.9C3819,1166.4 3813.2,1161.8 3813.2,1152.7C3813.2,1143.6 3818.4,1137.8 3834,1130.6C3858,1118.9 3898.2,1107.2 3908.6,1106.6C3919.6,1106.6 3924.2,1113.1 3924.2,1126.1L3924.2,1164.4C3948.2,1124.8 3982.6,1106 4013.8,1106C4045,1106 4071.6,1130 4071.6,1161.8L4071.5,1161.8Z" style="fill:rgb(0,121,140);fill-rule:nonzero;"/>
        <path d="M4360.2,1194.9L4432.2,1356.5C4445.2,1387.6 4476.3,1388.3 4476.3,1409.7C4476.3,1431.1 4466.6,1424 4446.4,1424L4356.2,1424C4336.7,1424 4327,1420.1 4327,1409.1C4327,1389 4358.8,1391.6 4345.8,1363L4299.1,1260.5L4230.3,1334.5C4230.3,1394.2 4261.4,1379.3 4261.4,1407.8C4261.4,1436.3 4251,1424 4232.8,1424L4140,1424C4121.8,1424 4110.1,1420.1 4110.1,1407.1C4110.1,1379.2 4142.5,1394.1 4142.5,1333.8L4141.9,1071.6C4141.9,1026.8 4110.8,1031.4 4110.8,1011.9C4110.8,992.4 4116,998.9 4131.6,991.8C4158.2,978.8 4204.9,963.2 4215.3,963.2C4225.7,963.2 4230.9,969 4230.9,982.7L4230.3,1071.6L4230.3,1277.3L4328.3,1172.8C4353.6,1146.2 4314.7,1146.2 4314.7,1126.7C4314.7,1107.2 4323.1,1112.4 4340.7,1112.4L4418.6,1112.4C4434.2,1112.4 4443.3,1116.9 4443.3,1126.7C4443.3,1146.2 4412.2,1139.7 4378.4,1175.4L4360.2,1194.9Z" style="fill:rgb(0,121,140);fill-rule:nonzero;"/>
        <path d="M758.9,887.1L759,887C757.7,886.7 725.2,661.6 820.5,513.9C838,486.8 859.1,454.1 899.3,427.4C944.9,397.1 971.6,403.3 1020.4,367.8C1068,333.2 1083.8,309.5 1085.7,297.3C1091.1,263.3 1078.1,414 1070.4,512.1C1067.8,545.1 1003.3,679.3 902.6,710C887,714.8 859.8,726.5 820.4,742.9C811.7,746.5 804.5,751.1 797.7,754.6C781.8,776 776.4,792.4 779.6,823C785,875.2 787.2,892.8 758.9,887.1ZM860,634L968,485C968,485 928.325,489.235 860,634Z" style="fill:rgb(0,121,140);"/>
        <path d="M761.7,882.1C733.4,887.8 729.2,872.2 734.6,820C737.8,789.4 732.4,773 716.5,751.6C709.7,748.1 702.5,743.5 693.8,739.9C654.4,723.5 627.2,711.8 611.6,707C510.9,676.3 446.4,542.1 443.8,509.1C436.1,411 423.1,260.3 428.5,294.3C430.4,306.5 446.2,330.2 493.8,364.8C542.6,400.3 569.3,394.1 614.9,424.4C655.1,451.1 676.2,483.8 693.7,510.9C789,658.6 762.8,881.7 761.6,882L761.7,882.1ZM641,622L568,486C568,486 539.589,446.983 508,443L641,622Z" style="fill:rgb(0,121,140);"/>
        <circle cx="763.9" cy="301.6" r="51" style="fill:rgb(237,174,73);"/>
        <g transform="matrix(1.016367,0,0,1.016367,29.92635,1441.775777)">
            <path d="M1796.56,164.6C1792.08,164.44 1788.52,162.96 1785.88,160.16C1783.24,157.36 1782,153.96 1782.16,149.96C1782.32,144.36 1785.04,139.12 1790.32,134.24C1795.6,129.36 1801.28,127 1807.36,127.16C1811.68,127.32 1815.28,128.84 1818.16,131.72C1821.04,134.6 1822.48,138.12 1822.48,142.28C1822.32,148.04 1819.52,153.24 1814.08,157.88C1808.64,162.52 1802.8,164.76 1796.56,164.6ZM1788.4,262.04L1788.16,217.88C1788.16,214.2 1787.56,211.08 1786.36,208.52C1785.16,205.96 1783.84,204.2 1782.4,203.24C1780.96,202.28 1779.64,201.2 1778.44,200C1777.24,198.8 1776.64,197.4 1776.64,195.8C1776.64,194.2 1777.16,192.92 1778.2,191.96C1779.24,191 1781.28,189.8 1784.32,188.36C1789.12,185.96 1795,183.6 1801.96,181.28C1808.92,178.96 1813.36,177.8 1815.28,177.8C1817.36,177.64 1818.84,178.16 1819.72,179.36C1820.6,180.56 1821.04,182.44 1821.04,185L1820.8,217.88L1820.8,262.04C1820.8,267.16 1821.4,271.24 1822.6,274.28C1823.8,277.32 1825.12,279.28 1826.56,280.16C1828,281.04 1829.32,282.24 1830.52,283.76C1831.72,285.28 1832.32,287.16 1832.32,289.4C1832.32,293.4 1828.8,295.4 1821.76,295.4L1787.44,295.4C1780.08,295.4 1776.4,293.32 1776.4,289.16C1776.4,286.92 1777.04,285.08 1778.32,283.64C1779.6,282.2 1780.96,281.04 1782.4,280.16C1783.84,279.28 1785.2,277.32 1786.48,274.28C1787.76,271.24 1788.4,267.16 1788.4,262.04Z" style="fill:rgb(48,99,142);fill-rule:nonzero;"/>
            <path d="M1972.72,227L1972.72,262.04C1972.72,267.16 1973.32,271.24 1974.52,274.28C1975.72,277.32 1977.08,279.28 1978.6,280.16C1980.12,281.04 1981.48,282.24 1982.68,283.76C1983.88,285.28 1984.48,287.16 1984.48,289.4C1984.48,293.4 1980.96,295.4 1973.92,295.4L1939.6,295.4C1932.24,295.4 1928.56,293.32 1928.56,289.16C1928.56,286.92 1929.16,285.08 1930.36,283.64C1931.56,282.2 1932.92,281.04 1934.44,280.16C1935.96,279.28 1937.32,277.32 1938.52,274.28C1939.72,271.24 1940.32,267.16 1940.32,262.04L1940.32,230.6C1940.32,220.68 1938.52,212.72 1934.92,206.72C1931.32,200.72 1925.6,197.8 1917.76,197.96C1911.36,197.96 1905.84,200.4 1901.2,205.28C1896.56,210.16 1893.84,217.08 1893.04,226.04L1893.04,262.04C1893.04,267.16 1893.64,271.24 1894.84,274.28C1896.04,277.32 1897.36,279.28 1898.8,280.16C1900.24,281.04 1901.56,282.24 1902.76,283.76C1903.96,285.28 1904.56,287.16 1904.56,289.4C1904.56,293.4 1901.04,295.4 1894,295.4L1859.68,295.4C1852.32,295.4 1848.64,293.32 1848.64,289.16C1848.64,286.92 1849.28,285.08 1850.56,283.64C1851.84,282.2 1853.2,281.04 1854.64,280.16C1856.08,279.28 1857.44,277.32 1858.72,274.28C1860,271.24 1860.64,267.16 1860.64,262.04L1860.64,216.44C1860.64,210.36 1858.16,205.48 1853.2,201.8C1850.16,199.72 1848.64,197.48 1848.64,195.08C1848.64,193.16 1849.16,191.64 1850.2,190.52C1851.24,189.4 1853.28,188.2 1856.32,186.92C1860.48,184.84 1865.6,182.88 1871.68,181.04C1877.76,179.2 1881.84,178.2 1883.92,178.04C1887.76,178.04 1889.68,180.44 1889.68,185.24L1889.68,198.44C1899.28,184.68 1912.56,177.8 1929.52,177.8C1943.76,177.8 1954.52,182.08 1961.8,190.64C1969.08,199.2 1972.72,211.32 1972.72,227Z" style="fill:rgb(48,99,142);fill-rule:nonzero;"/>
            <path d="M2069.68,268.28C2071.92,266.68 2073.84,266.48 2075.44,267.68C2077.04,268.88 2077.44,270.76 2076.64,273.32C2074.56,279.56 2070.32,285.2 2063.92,290.24C2057.52,295.28 2049.68,297.8 2040.4,297.8C2029.52,297.8 2021.12,294.52 2015.2,287.96C2009.28,281.4 2006.32,272.04 2006.32,259.88L2006.32,247.4C2006.32,225.16 2006.56,207.8 2007.04,195.32L2000.56,195.32C1994.96,195.32 1992.16,193.24 1992.16,189.08C1992.16,185.88 1993.36,183.16 1995.76,180.92C2005.36,171 2015.44,162.84 2026,156.44C2030,154.2 2032.96,153.08 2034.88,153.08C2036.48,153.08 2037.8,153.72 2038.84,155C2039.88,156.28 2040.32,157.88 2040.16,159.8C2039.68,164.44 2039.28,171.24 2038.96,180.2L2062.72,180.2C2068.48,180.2 2070.8,183 2069.68,188.6C2068.56,194.36 2065.12,197.08 2059.36,196.76L2038.72,196.04C2038.72,215.72 2038.64,232.84 2038.48,247.4C2038.32,258.12 2039.24,265.44 2041.24,269.36C2043.24,273.28 2046.96,275.24 2052.4,275.24C2057.84,275.24 2063.6,272.92 2069.68,268.28Z" style="fill:rgb(48,99,142);fill-rule:nonzero;"/>
            <path d="M2197.36,231.56C2197.04,235.72 2194.8,237.8 2190.64,237.8L2116.48,238.76C2117.76,249.64 2121.96,258.32 2129.08,264.8C2136.2,271.28 2145.04,274.52 2155.6,274.52C2167.12,274.52 2178,269.96 2188.24,260.84C2190.8,258.6 2193,258.16 2194.84,259.52C2196.68,260.88 2197.04,263.32 2195.92,266.84C2193.04,274.84 2187,282 2177.8,288.32C2168.6,294.64 2156.88,297.8 2142.64,297.8C2125.2,297.8 2111.16,292.4 2100.52,281.6C2089.88,270.8 2084.56,256.84 2084.56,239.72C2084.56,222.12 2090.64,207.4 2102.8,195.56C2114.96,183.72 2129.6,177.8 2146.72,177.8C2162.72,177.8 2175.44,182.72 2184.88,192.56C2194.32,202.4 2198.48,215.4 2197.36,231.56ZM2122.48,224.6L2162.08,224.36C2164.64,224.36 2166.2,224 2166.76,223.28C2167.32,222.56 2167.6,220.76 2167.6,217.88C2167.28,210.68 2164.8,204.72 2160.16,200C2155.52,195.28 2149.52,192.92 2142.16,192.92C2134.64,192.92 2128.48,195.76 2123.68,201.44C2118.88,207.12 2116.4,213.16 2116.24,219.56C2116.24,221.8 2116.6,223.2 2117.32,223.76C2118.04,224.32 2119.76,224.6 2122.48,224.6Z" style="fill:rgb(48,99,142);fill-rule:nonzero;"/>
            <path d="M2286.4,177.8C2293.28,177.8 2298.56,179.72 2302.24,183.56C2305.92,187.4 2307.76,192.36 2307.76,198.44C2307.76,203.24 2306.64,207.12 2304.4,210.08C2302.16,213.04 2299.28,214.52 2295.76,214.52C2292.08,214.52 2288.36,212.44 2284.6,208.28C2280.84,204.12 2277.04,202.04 2273.2,202.04C2268.72,202.04 2264.84,204.52 2261.56,209.48C2258.28,214.44 2256.64,221.16 2256.64,229.64L2256.64,262.04C2256.64,267.16 2257.24,271.24 2258.44,274.28C2259.64,277.32 2260.96,279.28 2262.4,280.16C2263.84,281.04 2265.16,282.24 2266.36,283.76C2267.56,285.28 2268.16,287.16 2268.16,289.4C2268.16,293.4 2264.64,295.4 2257.6,295.4L2223.28,295.4C2215.92,295.4 2212.24,293.32 2212.24,289.16C2212.24,286.92 2212.88,285.08 2214.16,283.64C2215.44,282.2 2216.8,281.04 2218.24,280.16C2219.68,279.28 2221.04,277.32 2222.32,274.28C2223.6,271.24 2224.24,267.16 2224.24,262.04L2224.24,216.44C2224.24,210.36 2221.76,205.48 2216.8,201.8C2213.76,199.72 2212.24,197.48 2212.24,195.08C2212.24,193.16 2212.76,191.64 2213.8,190.52C2214.84,189.4 2216.88,188.2 2219.92,186.92C2224.08,184.84 2229.2,182.88 2235.28,181.04C2241.36,179.2 2245.44,178.2 2247.52,178.04C2251.36,178.04 2253.28,180.44 2253.28,185.24L2253.28,199.4C2262.08,185 2273.12,177.8 2286.4,177.8Z" style="fill:rgb(48,99,142);fill-rule:nonzero;"/>
            <path d="M2447.68,227L2447.68,262.04C2447.68,267.16 2448.28,271.24 2449.48,274.28C2450.68,277.32 2452.04,279.28 2453.56,280.16C2455.08,281.04 2456.44,282.24 2457.64,283.76C2458.84,285.28 2459.44,287.16 2459.44,289.4C2459.44,293.4 2455.92,295.4 2448.88,295.4L2414.56,295.4C2407.2,295.4 2403.52,293.32 2403.52,289.16C2403.52,286.92 2404.12,285.08 2405.32,283.64C2406.52,282.2 2407.88,281.04 2409.4,280.16C2410.92,279.28 2412.28,277.32 2413.48,274.28C2414.68,271.24 2415.28,267.16 2415.28,262.04L2415.28,230.6C2415.28,220.68 2413.48,212.72 2409.88,206.72C2406.28,200.72 2400.56,197.8 2392.72,197.96C2386.32,197.96 2380.8,200.4 2376.16,205.28C2371.52,210.16 2368.8,217.08 2368,226.04L2368,262.04C2368,267.16 2368.6,271.24 2369.8,274.28C2371,277.32 2372.32,279.28 2373.76,280.16C2375.2,281.04 2376.52,282.24 2377.72,283.76C2378.92,285.28 2379.52,287.16 2379.52,289.4C2379.52,293.4 2376,295.4 2368.96,295.4L2334.64,295.4C2327.28,295.4 2323.6,293.32 2323.6,289.16C2323.6,286.92 2324.24,285.08 2325.52,283.64C2326.8,282.2 2328.16,281.04 2329.6,280.16C2331.04,279.28 2332.4,277.32 2333.68,274.28C2334.96,271.24 2335.6,267.16 2335.6,262.04L2335.6,216.44C2335.6,210.36 2333.12,205.48 2328.16,201.8C2325.12,199.72 2323.6,197.48 2323.6,195.08C2323.6,193.16 2324.12,191.64 2325.16,190.52C2326.2,189.4 2328.24,188.2 2331.28,186.92C2335.44,184.84 2340.56,182.88 2346.64,181.04C2352.72,179.2 2356.8,178.2 2358.88,178.04C2362.72,178.04 2364.64,180.44 2364.64,185.24L2364.64,198.44C2374.24,184.68 2387.52,177.8 2404.48,177.8C2418.72,177.8 2429.48,182.08 2436.76,190.64C2444.04,199.2 2447.68,211.32 2447.68,227Z" style="fill:rgb(48,99,142);fill-rule:nonzero;"/>
            <path d="M2579.2,224.36L2579.2,263C2579.2,267.48 2579.96,270.8 2581.48,272.96C2583,275.12 2584.72,276.28 2586.64,276.44C2588.56,276.6 2590.28,276.96 2591.8,277.52C2593.32,278.08 2594.08,279.08 2594.08,280.52C2594.08,284.52 2591.52,288.24 2586.4,291.68C2581.28,295.12 2575.92,296.84 2570.32,296.84C2559.12,296.84 2552.32,291.32 2549.92,280.28C2540,291.8 2526.96,297.56 2510.8,297.56C2499.44,297.56 2489.76,294.32 2481.76,287.84C2473.76,281.36 2469.76,272.6 2469.76,261.56C2469.76,250.04 2474.68,240.68 2484.52,233.48C2494.36,226.28 2507.2,222.68 2523.04,222.68C2532.16,222.68 2540.4,223.88 2547.76,226.28C2546.64,216.52 2543.68,209.48 2538.88,205.16C2534.08,200.84 2527.2,198.68 2518.24,198.68C2509.76,198.68 2500.64,201.4 2490.88,206.84C2488.48,208.44 2486.44,208.44 2484.76,206.84C2483.08,205.24 2483.12,203 2484.88,200.12C2488.24,194.52 2494.36,189.4 2503.24,184.76C2512.12,180.12 2521.6,177.8 2531.68,177.8C2547.36,177.8 2559.2,182 2567.2,190.4C2575.2,198.8 2579.2,210.12 2579.2,224.36ZM2522.56,280.28C2528.64,280.28 2534.4,278.28 2539.84,274.28C2545.28,270.28 2548.08,265.88 2548.24,261.08C2548.24,255.48 2548.16,250.04 2548,244.76C2547.84,241.88 2545.72,239.52 2541.64,237.68C2537.56,235.84 2532.48,234.92 2526.4,234.92C2518.08,234.92 2511.44,237 2506.48,241.16C2501.52,245.32 2499.12,251 2499.28,258.2C2499.28,264.92 2501.4,270.28 2505.64,274.28C2509.88,278.28 2515.52,280.28 2522.56,280.28Z" style="fill:rgb(48,99,142);fill-rule:nonzero;"/>
            <path d="M2675.2,268.28C2677.44,266.68 2679.36,266.48 2680.96,267.68C2682.56,268.88 2682.96,270.76 2682.16,273.32C2680.08,279.56 2675.84,285.2 2669.44,290.24C2663.04,295.28 2655.2,297.8 2645.92,297.8C2635.04,297.8 2626.64,294.52 2620.72,287.96C2614.8,281.4 2611.84,272.04 2611.84,259.88L2611.84,247.4C2611.84,225.16 2612.08,207.8 2612.56,195.32L2606.08,195.32C2600.48,195.32 2597.68,193.24 2597.68,189.08C2597.68,185.88 2598.88,183.16 2601.28,180.92C2610.88,171 2620.96,162.84 2631.52,156.44C2635.52,154.2 2638.48,153.08 2640.4,153.08C2642,153.08 2643.32,153.72 2644.36,155C2645.4,156.28 2645.84,157.88 2645.68,159.8C2645.2,164.44 2644.8,171.24 2644.48,180.2L2668.24,180.2C2674,180.2 2676.32,183 2675.2,188.6C2674.08,194.36 2670.64,197.08 2664.88,196.76L2644.24,196.04C2644.24,215.72 2644.16,232.84 2644,247.4C2643.84,258.12 2644.76,265.44 2646.76,269.36C2648.76,273.28 2652.48,275.24 2657.92,275.24C2663.36,275.24 2669.12,272.92 2675.2,268.28Z" style="fill:rgb(48,99,142);fill-rule:nonzero;"/>
            <path d="M2715.52,164.6C2711.04,164.44 2707.48,162.96 2704.84,160.16C2702.2,157.36 2700.96,153.96 2701.12,149.96C2701.28,144.36 2704,139.12 2709.28,134.24C2714.56,129.36 2720.24,127 2726.32,127.16C2730.64,127.32 2734.24,128.84 2737.12,131.72C2740,134.6 2741.44,138.12 2741.44,142.28C2741.28,148.04 2738.48,153.24 2733.04,157.88C2727.6,162.52 2721.76,164.76 2715.52,164.6ZM2707.36,262.04L2707.12,217.88C2707.12,214.2 2706.52,211.08 2705.32,208.52C2704.12,205.96 2702.8,204.2 2701.36,203.24C2699.92,202.28 2698.6,201.2 2697.4,200C2696.2,198.8 2695.6,197.4 2695.6,195.8C2695.6,194.2 2696.12,192.92 2697.16,191.96C2698.2,191 2700.24,189.8 2703.28,188.36C2708.08,185.96 2713.96,183.6 2720.92,181.28C2727.88,178.96 2732.32,177.8 2734.24,177.8C2736.32,177.64 2737.8,178.16 2738.68,179.36C2739.56,180.56 2740,182.44 2740,185L2739.76,217.88L2739.76,262.04C2739.76,267.16 2740.36,271.24 2741.56,274.28C2742.76,277.32 2744.08,279.28 2745.52,280.16C2746.96,281.04 2748.28,282.24 2749.48,283.76C2750.68,285.28 2751.28,287.16 2751.28,289.4C2751.28,293.4 2747.76,295.4 2740.72,295.4L2706.4,295.4C2699.04,295.4 2695.36,293.32 2695.36,289.16C2695.36,286.92 2696,285.08 2697.28,283.64C2698.56,282.2 2699.92,281.04 2701.36,280.16C2702.8,279.28 2704.16,277.32 2705.44,274.28C2706.72,271.24 2707.36,267.16 2707.36,262.04Z" style="fill:rgb(48,99,142);fill-rule:nonzero;"/>
            <path d="M2823.52,297.8C2807.2,297.8 2793.72,292.76 2783.08,282.68C2772.44,272.6 2767.12,259.16 2767.12,242.36C2767.12,224.28 2773.44,209 2786.08,196.52C2798.72,184.04 2814.48,177.8 2833.36,177.8C2849.68,177.8 2863.08,183.16 2873.56,193.88C2884.04,204.6 2889.28,218.04 2889.28,234.2C2889.28,252.44 2883.08,267.6 2870.68,279.68C2858.28,291.76 2842.56,297.8 2823.52,297.8ZM2833.84,281.96C2841.52,281.96 2847.36,279.04 2851.36,273.2C2855.36,267.36 2857.36,259.96 2857.36,251C2857.36,236.28 2854.04,223.04 2847.4,211.28C2840.76,199.52 2832.48,193.64 2822.56,193.64C2814.56,193.64 2808.6,196.84 2804.68,203.24C2800.76,209.64 2798.8,217.56 2798.8,227C2798.8,241.56 2802.12,254.36 2808.76,265.4C2815.4,276.44 2823.76,281.96 2833.84,281.96Z" style="fill:rgb(48,99,142);fill-rule:nonzero;"/>
            <path d="M3029.92,227L3029.92,262.04C3029.92,267.16 3030.52,271.24 3031.72,274.28C3032.92,277.32 3034.28,279.28 3035.8,280.16C3037.32,281.04 3038.68,282.24 3039.88,283.76C3041.08,285.28 3041.68,287.16 3041.68,289.4C3041.68,293.4 3038.16,295.4 3031.12,295.4L2996.8,295.4C2989.44,295.4 2985.76,293.32 2985.76,289.16C2985.76,286.92 2986.36,285.08 2987.56,283.64C2988.76,282.2 2990.12,281.04 2991.64,280.16C2993.16,279.28 2994.52,277.32 2995.72,274.28C2996.92,271.24 2997.52,267.16 2997.52,262.04L2997.52,230.6C2997.52,220.68 2995.72,212.72 2992.12,206.72C2988.52,200.72 2982.8,197.8 2974.96,197.96C2968.56,197.96 2963.04,200.4 2958.4,205.28C2953.76,210.16 2951.04,217.08 2950.24,226.04L2950.24,262.04C2950.24,267.16 2950.84,271.24 2952.04,274.28C2953.24,277.32 2954.56,279.28 2956,280.16C2957.44,281.04 2958.76,282.24 2959.96,283.76C2961.16,285.28 2961.76,287.16 2961.76,289.4C2961.76,293.4 2958.24,295.4 2951.2,295.4L2916.88,295.4C2909.52,295.4 2905.84,293.32 2905.84,289.16C2905.84,286.92 2906.48,285.08 2907.76,283.64C2909.04,282.2 2910.4,281.04 2911.84,280.16C2913.28,279.28 2914.64,277.32 2915.92,274.28C2917.2,271.24 2917.84,267.16 2917.84,262.04L2917.84,216.44C2917.84,210.36 2915.36,205.48 2910.4,201.8C2907.36,199.72 2905.84,197.48 2905.84,195.08C2905.84,193.16 2906.36,191.64 2907.4,190.52C2908.44,189.4 2910.48,188.2 2913.52,186.92C2917.68,184.84 2922.8,182.88 2928.88,181.04C2934.96,179.2 2939.04,178.2 2941.12,178.04C2944.96,178.04 2946.88,180.44 2946.88,185.24L2946.88,198.44C2956.48,184.68 2969.76,177.8 2986.72,177.8C3000.96,177.8 3011.72,182.08 3019,190.64C3026.28,199.2 3029.92,211.32 3029.92,227Z" style="fill:rgb(48,99,142);fill-rule:nonzero;"/>
            <path d="M3161.44,224.36L3161.44,263C3161.44,267.48 3162.2,270.8 3163.72,272.96C3165.24,275.12 3166.96,276.28 3168.88,276.44C3170.8,276.6 3172.52,276.96 3174.04,277.52C3175.56,278.08 3176.32,279.08 3176.32,280.52C3176.32,284.52 3173.76,288.24 3168.64,291.68C3163.52,295.12 3158.16,296.84 3152.56,296.84C3141.36,296.84 3134.56,291.32 3132.16,280.28C3122.24,291.8 3109.2,297.56 3093.04,297.56C3081.68,297.56 3072,294.32 3064,287.84C3056,281.36 3052,272.6 3052,261.56C3052,250.04 3056.92,240.68 3066.76,233.48C3076.6,226.28 3089.44,222.68 3105.28,222.68C3114.4,222.68 3122.64,223.88 3130,226.28C3128.88,216.52 3125.92,209.48 3121.12,205.16C3116.32,200.84 3109.44,198.68 3100.48,198.68C3092,198.68 3082.88,201.4 3073.12,206.84C3070.72,208.44 3068.68,208.44 3067,206.84C3065.32,205.24 3065.36,203 3067.12,200.12C3070.48,194.52 3076.6,189.4 3085.48,184.76C3094.36,180.12 3103.84,177.8 3113.92,177.8C3129.6,177.8 3141.44,182 3149.44,190.4C3157.44,198.8 3161.44,210.12 3161.44,224.36ZM3104.8,280.28C3110.88,280.28 3116.64,278.28 3122.08,274.28C3127.52,270.28 3130.32,265.88 3130.48,261.08C3130.48,255.48 3130.4,250.04 3130.24,244.76C3130.08,241.88 3127.96,239.52 3123.88,237.68C3119.8,235.84 3114.72,234.92 3108.64,234.92C3100.32,234.92 3093.68,237 3088.72,241.16C3083.76,245.32 3081.36,251 3081.52,258.2C3081.52,264.92 3083.64,270.28 3087.88,274.28C3092.12,278.28 3097.76,280.28 3104.8,280.28Z" style="fill:rgb(48,99,142);fill-rule:nonzero;"/>
            <path d="M3198.88,262.04L3198.88,165.32C3198.88,161.64 3198.28,158.52 3197.08,155.96C3195.88,153.4 3194.56,151.64 3193.12,150.68C3191.68,149.72 3190.36,148.6 3189.16,147.32C3187.96,146.04 3187.36,144.6 3187.36,143C3187.36,140.28 3189.84,137.8 3194.8,135.56C3199.76,133.16 3205.72,130.8 3212.68,128.48C3219.64,126.16 3224.08,125 3226,125C3229.68,125 3231.52,127.4 3231.52,132.2L3231.28,165.08L3231.28,262.04C3231.28,267.16 3231.88,271.24 3233.08,274.28C3234.28,277.32 3235.6,279.28 3237.04,280.16C3238.48,281.04 3239.8,282.24 3241,283.76C3242.2,285.28 3242.8,287.16 3242.8,289.4C3242.8,293.4 3239.28,295.4 3232.24,295.4L3197.92,295.4C3190.56,295.4 3186.88,293.32 3186.88,289.16C3186.88,286.92 3187.48,285.08 3188.68,283.64C3189.88,282.2 3191.24,281.04 3192.76,280.16C3194.28,279.28 3195.68,277.32 3196.96,274.28C3198.24,271.24 3198.88,267.16 3198.88,262.04Z" style="fill:rgb(48,99,142);fill-rule:nonzero;"/>
        </g>
    </g>
</svg>
