<svg id="Layer_1" data-name="Layer 1" xmlns="http://www.w3.org/2000/svg" viewBox="0 0 143.5 46"><defs><style>.cls-1{fill:#008c99;}</style></defs><title>tn-logo</title><path class="cls-1" d="M142.3.8h.2C142.4.6,142.4.7,142.3.8Z" transform="translate(0 0)"/><path class="cls-1" d="M142,1q.15,0,.3-.3l-.3.2Z" transform="translate(0 0)"/><path class="cls-1" d="M141.3,45.6a4.59,4.59,0,0,0,2.2-.26V35.91a7.67,7.67,0,0,0-.8-.71l.3-.6a.55.55,0,0,0,.5-.05V1.78c-.1-.33-.26-.56-.5-.58l-.6.3c-.2,0-.4-.1-.6-.1s-.3.4-.5.4c-.5-.4-1.9-.1-2.6-.3,1.5-.4,2.2-.5,3.2-.7,0-.2.1-.4-.1-.4C139.7.4,106.2.3,76.7.3c-2.5,0-6.4.5-8.9.5C50.3.8,35.7.3,34.4.3c-1.1,0-2.2.1-3.3,0-.4,0-.9-.2-1.3-.2a4.25,4.25,0,0,0-1.1.2H27a8.86,8.86,0,0,1-2.3,0C18.3.2,11.5.5,4,.4A.88.88,0,0,0,3.3.3.54.54,0,0,0,2.9,0L2,.4A.64.64,0,0,1,2,1C1.6,1,1.2.9.8.9.6.8.6.4.3.5S.1,2,.2,2.3C.3,5.5.2,8.9.2,12.5v7.8a7.48,7.48,0,0,0-.1,2.6,2.09,2.09,0,0,0,.4.6,2.77,2.77,0,0,1,.1.9,17.57,17.57,0,0,1,0,2.3c-.6,1-.4,3.1-.4,4.8v7.2A30.88,30.88,0,0,0,.3,43a.37.37,0,0,0,0,.6.55.55,0,0,0-.3.5c.6.1.2.5.4.9a14.15,14.15,0,0,0,2.9.2H21.8a16.06,16.06,0,0,0,3.1,0,1.76,1.76,0,0,0,.5-.4h1.7a.78.78,0,0,0,.4.4c4.1.1,105.8.6,110.1.6a13.55,13.55,0,0,0,2,.2c.2-.1.4-.4.7-.4Zm1.5-30.5.1.1v1.7c0,.5.2,1.3-.4,1.3C142.5,17.4,142.7,16.1,142.8,15.1Zm-1.2-7.7h.1c0,.1,0,.2-.1.2C141.5,7.8,141.6,7.4,141.6,7.4ZM1.9,3.1h.2a1.85,1.85,0,0,0,.2.7H1.8A1.7,1.7,0,0,1,1.9,3.1ZM2,9.6a17,17,0,0,1,.1,3.9A17,17,0,0,1,2,9.6Zm.1,33.2c.2.1.7-.3.7.2C2.5,42.8,2.1,43,2.1,42.8Zm31.7.8c-.1,0,.3-.1.3,0S34,43.5,33.8,43.6Zm.5,0c.1-.1.6-.3.5,0Zm51.1.1a16.2,16.2,0,0,0-4.4,0c-22.8,0-43.9-.1-45.3-.1,1.4-.4,3.2.2,4.6-.3A1.59,1.59,0,0,0,39,43a15,15,0,0,0-3,0,.6.6,0,0,0-.8,0,2.77,2.77,0,0,0-.9-.1,1.38,1.38,0,0,1-.4-.3,39.37,39.37,0,0,1-7.7.4c.1-1.2.2-2.3.3-3.7v-.9a22.85,22.85,0,0,1,0-3.7,28.4,28.4,0,0,0-2.8-11.8,11.26,11.26,0,0,0-1.3-2.7,3.13,3.13,0,0,1-.9-1.1,1.85,1.85,0,0,1,.7.2,4.9,4.9,0,0,0-2.6-2.5,13.5,13.5,0,0,0-3.3-1.9,3.37,3.37,0,0,1-1.7-.5,4.42,4.42,0,0,1-1.5-.5c.3-.1.6-.1.9-.2-1-.5-2-1-2.9-1.5a11.92,11.92,0,0,1-3-4.3c-.2-.3-.3-1-.8-1-.3.8.9,2-.1,2.3a3.55,3.55,0,0,0-.2-1v2.5c-.1,3.2.8,6.7.7,9.4a58.57,58.57,0,0,0,3,5.5c-.1.2-.6,0-.4.2A9.88,9.88,0,0,0,12.4,29a26.16,26.16,0,0,0,2,1.7c1.1.8,2.3,1.1,3.1,2,3,1.1,6.3,1.8,7.9,4.6A54.58,54.58,0,0,1,25,43H24c-.3,0-.7-.2-1-.2s-.4.1-.6.1-.6-.2-.9-.2a13.41,13.41,0,0,0-2,.1H8.5c-.2,0-.5.1-.8.1a5,5,0,0,0-1.2-.2c-.2,0-.3.1-.4.1A14.91,14.91,0,0,1,4,42.6c.3-.3,1.3,0,1.1-.9a6.07,6.07,0,0,0-1-.7c.1-.4.1-.8-.3-.9a.67.67,0,0,0-.3-.8H3.3c-.3-.1-.2.2-.4.2a.46.46,0,0,0-.4-.5,31.84,31.84,0,0,0,.1-6.9c-.1-.9.2-1.7-.3-2.4.1-3.4-.2-6.7,0-10.2.1-.1.3-.2.4-.3.1-1,.1-2.1.1-3.1-.2-1.3.1-3.3,0-4.9s-.2-2.8-.2-4a4.4,4.4,0,0,1,.2-1.6c-.2-.3-.4-.3-.7-.2a5,5,0,0,1,.2-1.2,5.58,5.58,0,0,1,.5.8h.6a10.87,10.87,0,0,1,.1-1.8H8.8a8.08,8.08,0,0,0,3.1,0c.9-.1,2.1.3,2.7-.2-.4-.5-1.2-.4-2-.4-.4,0-.8-.2-1.2-.2h-2a1.23,1.23,0,0,1,1-.2h4.2l.3.3c2.4,0,4.8.1,7.6.2,1.8.1,3.5,0,5.3,0,5.2-.2,107.2.5,112.6-.4.1-.3-.3-.1-.2-.3h.5c.2,2.3-.2,4.3-.1,6.1a2.86,2.86,0,0,0-.1,1.6,7.58,7.58,0,0,0-.1,2.6c.5.5.1,1.4.2,2.4,0,.2.1.5.1.8,0,.6-.1,1.2-.1,1.8s-.1,1.4.4,1.4c.2,0,.3-.1.4-.3-.1-1.1.1-2.2,0-3,.3-2,.1-5.3.4-7.4a20.45,20.45,0,0,1,0,3.5c0,.1-.1.3-.1.4a1.7,1.7,0,0,1,.1.7.78.78,0,0,0-.1.8.37.37,0,0,0-.1.3,1.67,1.67,0,0,1-.1,1.2c-.1,1-.1,2.6-.1,3.6a1.09,1.09,0,0,0,.2,1.1c0,1.7-.2,3.3-.2,5.1,0,.2.1.5.1.6l-.1.3c0,.1.1.3.1.4a1.27,1.27,0,0,1-.1.6l.3.6a2.84,2.84,0,0,0,0,1.3,11.3,11.3,0,0,0,0,2.6c0,.1-.1.2-.1.3.1,1.9-.4,3.9-.2,6,.6-.6.3-2,.6-2.8.1,1.1-.2,2.3-.1,3.5a3.91,3.91,0,0,1,.1,2.4c-.4-.4-.1-1.4-.8-1.3-.5,0-.2.6-.4,1.1,0,.2-.4.1-.5.2-.3,1.1-.3,2-.6,3.1C138.8,43.7,88.7,44.1,85.4,43.7ZM20.7,28.4A7.48,7.48,0,0,0,19.2,26c-1.1-1.3-5.5-3.9-5.5-4.1a2.56,2.56,0,0,1-1-1.3h-.1a.56.56,0,0,0-.5-.6c-.5-1.1-1.2-2-1.7-3.2,1.2,1.8,2.8,3.2,3.9,5.2a6.83,6.83,0,0,1,3.2,1.8c.8,0,2.9,3.6,3.5,4.6l-.15.08-.15-.38C20.6,28.1,20.8,28.2,20.7,28.4Zm-2.8-2.5a4.43,4.43,0,0,1-1.5-1.2A4.43,4.43,0,0,1,17.9,25.9Zm3,2.75v0Zm.18,0c-.18.28.39.64.4,1h0a2.9,2.9,0,0,1-.57-.94A.19.19,0,0,1,21.1,28.6Zm.46,1.12a.33.33,0,0,1,.24.28l-.16-.08A1.3,1.3,0,0,0,21.56,29.72Zm.44.58c-.23,0-.29-.17-.35-.35C21.78,30.07,22,30,22,30.3Z" transform="translate(0 0)"/><path class="cls-1" d="M122.6,15.3h0a2,2,0,0,0-.4-.8l-.3-.9c-.2-.2-.3-.4-.5-.6s-.3-.4-.5-.6-.3-.1-.5-.2a10.47,10.47,0,0,1-1.1-.8,2,2,0,0,0-1.3-.1.31.31,0,0,1-.1-.2,1.27,1.27,0,0,1-.6.1l-.1.1a5.43,5.43,0,0,0-3.5.9,6.42,6.42,0,0,1-1,1.3c-.2.3-.2.7-.4,1-.1.1-.2.2-.2.3a5.82,5.82,0,0,0-.3,1.9,2.52,2.52,0,0,0,.6,2l.1.2.3.3a4.87,4.87,0,0,1,.3.7,4.9,4.9,0,0,0,1.2,1.3c.1.1.2.2.3.2a7.36,7.36,0,0,0,1.4.4,2.35,2.35,0,0,0,.8.2,5,5,0,0,0,3.9-1c.2-.1.3-.4.6-.6a2,2,0,0,0,.9-1.6,3.12,3.12,0,0,0,.5-2.5A3.4,3.4,0,0,0,122.6,15.3Zm-4,3.4a2.34,2.34,0,0,1-.7.7h-.3c-1,.2-1.4-.3-1.8-1.2a2.18,2.18,0,0,0-.3-.5v-.5c0-.1-.1-.2-.1-.3s.1-.2.1-.3v-.9a3.46,3.46,0,0,1,1-2.1,1.85,1.85,0,0,1,2.5.8,8.93,8.93,0,0,1-.4,4.3Z" transform="translate(0 0)"/><path class="cls-1" d="M97.7,7.6a1.8,1.8,0,0,0-1.5-.7c-.1,0,.1.1-.1.1-.5-.4-1.5.2-1.7.8,0,.2-.1.3-.1.5a2.35,2.35,0,0,0-.2.8,3.13,3.13,0,0,0,.5,1,1.06,1.06,0,0,0,.7.6,2.19,2.19,0,0,0,.5.3,2,2,0,0,0,1.3-.4l.1-.3.3-.3a4.88,4.88,0,0,0,.4-1.1,3.55,3.55,0,0,0-.2-1Z" transform="translate(0 0)"/><path class="cls-1" d="M107.7,7.9c-.1.1-.1.3-.2.4a.8.8,0,0,0-.2,1,.86.86,0,0,0,.6,1.1,1.14,1.14,0,0,0,.8.3,2.92,2.92,0,0,0,.9.2.68.68,0,0,1,.6-.4v-.2c.1,0,.2-.1.3-.2a.37.37,0,0,1-.1-.3c.1,0,.1-.1.2-.1a1.8,1.8,0,0,0-.3-1.9A2,2,0,0,0,107.7,7.9Z" transform="translate(0 0)"/><path class="cls-1" d="M60.8,11.5l.1-.1a1.47,1.47,0,0,0-1.1-.2l-.1-.1c-.1-.1-.3,0-.4.1a1.7,1.7,0,0,0-1,0,2.47,2.47,0,0,0-1.6,1.4v.2h-.2c-.2.3-.5.4-.7.7h-.2c0-.2,0-.5.2-.6V11.2a6.15,6.15,0,0,1-1.4.1,5.38,5.38,0,0,1-2.8.8,11.49,11.49,0,0,1-.1,1.9,4.33,4.33,0,0,0,1.6.1,6.6,6.6,0,0,0-.1,1.4.64.64,0,0,1,0,.6,17.11,17.11,0,0,1,0,3.2,1.45,1.45,0,0,1-.7.2c-.2,0-.1.2-.2.2a2.2,2.2,0,0,0-.8.1,1,1,0,0,0,.2.7,1.72,1.72,0,0,0-.2,1.2c2,.1,4.1.1,6.1,0a12.1,12.1,0,0,0-.1-1.9,3.55,3.55,0,0,0-1-.2.78.78,0,0,0-.4-.4,2.92,2.92,0,0,0-.2-.9,1.08,1.08,0,0,0,0-1.1,2,2,0,0,0,.2-1.3,1.88,1.88,0,0,1,.2-.8,1.53,1.53,0,0,1,2.1-.7,1,1,0,0,0,.5.6c-.2.2.1.3.2.4h2a1.1,1.1,0,0,0,0-.8C60.8,13.7,60.9,12.5,60.8,11.5Z" transform="translate(0 0)"/><path class="cls-1" d="M97.8,19.7V18c0-.5-.1-.7-.1-1,0-1.9,0-3.8-.1-5.3h0a12,12,0,0,0-3.8.4,2.35,2.35,0,0,0-.8-.2c0,.6.1,1.4.1,2a5,5,0,0,0,1.2.2,7.63,7.63,0,0,1,.2,2.6c-.1.9,0,1.7-.1,2.6a7.37,7.37,0,0,1-1.4.4,2.06,2.06,0,0,0-.3,2c2.1-.1,4.3,0,6.4.1a4.84,4.84,0,0,0,0-1.7C98.9,19.8,98,20.1,97.8,19.7Z" transform="translate(0 0)"/><path class="cls-1" d="M110.7,17.3a.35.35,0,0,1-.1-.2,2,2,0,0,0,0-1.5.45.45,0,0,0,0-.5c.1-.1.2-.2.2-.3s-.1-.4-.3-.4a1.38,1.38,0,0,0,.4-.3c.1-.9,0-1.6.1-2.4l-.1-.1c-.1-.3-.3-.1-.3,0a.61.61,0,0,0-.8.1,1.1,1.1,0,0,0-.8,0,12.66,12.66,0,0,0-2.8.6c-.1,0,.1,0,.1.1a.22.22,0,0,0-.2.2.22.22,0,0,1,.2.2.64.64,0,0,0,0,.6c0,.1.1.1.2.1a.57.57,0,0,0-.2.7,1.79,1.79,0,0,1,1.4.4c.2.4.1.8.3,1.1l-.1.1c.1.5-.2,1.5.1,2l-.1.1a.88.88,0,0,1-.1.7c-.1.3,0,.8-.1,1-.2.6-1.4.3-1.8.6a8.6,8.6,0,0,0-.1,1.6,25.42,25.42,0,0,0,3.9-.1l.3.1.1-.1c.1.1,0,.1,0,.2.8.1,1.5.1,2.3.2a12.1,12.1,0,0,0,.1-1.9,8.47,8.47,0,0,1-1.7-.4A24.52,24.52,0,0,1,110.7,17.3Z" transform="translate(0 0)"/><path class="cls-1" d="M53,22.9a26.73,26.73,0,0,1-4-.1,14.77,14.77,0,0,0-.1,2.1,2.62,2.62,0,0,0,1.5.2,12.78,12.78,0,0,1-.2,2.6,7.72,7.72,0,0,0,.2,1.5c0,.2,0,1.4-.3,1.4a2.36,2.36,0,0,1-.6-.9c-.4-.8-.5-1.3-.9-2a9,9,0,0,0-.5-.9,6.15,6.15,0,0,1-.3-1.1c0-.1-.2-.2-.3-.5a7.6,7.6,0,0,0-.4-1.1,1.39,1.39,0,0,0-.5-1H42.8a1.42,1.42,0,0,0-.6-.2,8.08,8.08,0,0,0-1.6.1c-.3.5.1,1.2.1,1.9.4.3,1,.1,1.3.4a1.72,1.72,0,0,1,.2,1.2,16.2,16.2,0,0,0-.1,2.2,30.85,30.85,0,0,0,0,4.3c0,.2-.1.4-.1.6a5.5,5.5,0,0,1-.2,2.2,7.36,7.36,0,0,0-1.4.4c-.3.3,0,1.4,0,1.9a1.7,1.7,0,0,0,.7-.1c1.4,0,3.6.1,5.1,0a13.41,13.41,0,0,1,.1-2,9.93,9.93,0,0,1-1.5-.3,2.89,2.89,0,0,1-.3-1.8c.1-1.1.2-2.5.2-3.6-.1-.6-.3-1.3.2-1.6a1,1,0,0,1,.4.5c.4.7.8,1.7,1.2,2.5a3.55,3.55,0,0,1,.4.9c.3.7.7,1.2,1,1.9s.7,1.3,1,1.9c.2.3.5,1.4.9,1.5h.5a22.61,22.61,0,0,0,2.6.1.6.6,0,0,1,.1-.4,22.86,22.86,0,0,1,0-3.7V31c0-1.7.1-3.2.2-4.7a1.8,1.8,0,0,1,.2-1c.4-.4,1.2-.1,1.4-.4a12.37,12.37,0,0,1-.2-1.8A3,3,0,0,0,53,22.9Z" transform="translate(0 0)"/><path class="cls-1" d="M70,29.7a16.21,16.21,0,0,0,.1-2.2c-.6-.2-2,.2-2.2-.6V24.1h0a1.64,1.64,0,0,0-1.2.2c0,.5-.4.8-.4,1.3a1,1,0,0,0-.4.5v.3h-.1a.55.55,0,0,0-.4.6c-.1,0-.1-.1-.2,0s-.1.1-.1.2c-.2-.1-.3.2-.4.3a5.64,5.64,0,0,1-1.2.4,3.41,3.41,0,0,0,0,2c.1-.1.2-.1.3-.2a.76.76,0,0,0,.8.1,12.9,12.9,0,0,1,0,3.4c0,.8.1,1.4.1,2.1l.1.1a2.6,2.6,0,0,0,.8,2.5.87.87,0,0,0,.9.4,5.44,5.44,0,0,0,1.8,0,3.1,3.1,0,0,0,1.8-.9c0-.2,0-.3-.1-.4v-.3c0-.3-.1-.5-.1-.8-.9,0-1.4,0-1.7-.6-.9-1.6-.5-4-.2-5.6C68.3,29.6,69.3,29.8,70,29.7Z" transform="translate(0 0)"/><path class="cls-1" d="M59.5,35.9a4.55,4.55,0,0,1-1.9-.8,1.38,1.38,0,0,1-.3-.4,5.64,5.64,0,0,1-.4-1.2c.1-.4,1-.2,1.5-.2,1.5,0,3.1-.1,4.8-.2a12.07,12.07,0,0,0-.7-3.4l-.1-.2a3,3,0,0,0-1.2-1.3,4.3,4.3,0,0,0-2.5-.7,1.85,1.85,0,0,1-.7.2c-.5,0-1,0-1.2.4a1.49,1.49,0,0,0-.9.4l-.3.3c-.1.1-.2.1-.3.2-.2.3-.3.6-.5.9a7.15,7.15,0,0,0-.8,1.5A5.55,5.55,0,0,0,54,35c.2.3.4.5.6.8s.3.4.4.6a8.65,8.65,0,0,0,1,.7,1.74,1.74,0,0,0,1.2.6,2.49,2.49,0,0,0,1.7.3,4.87,4.87,0,0,0,1.2.1.35.35,0,0,1,.2-.1l.3.2a1.78,1.78,0,0,0,1-.4,5.51,5.51,0,0,0,2-1.7,10,10,0,0,0-1-1.1A5.61,5.61,0,0,1,59.5,35.9Zm.6-4.8a1.73,1.73,0,0,1-1,.1c-.7.1-1.6.4-2.1-.1C57.1,29.2,60.2,29,60.1,31.1Z" transform="translate(0 0)"/><path class="cls-1" d="M94.5,29.3c-.1-.1-.2-.4-.3-.5-.3-.3-.8-.5-1.1-.8-.6-.2-1.2-.4-1.9-.7a5.44,5.44,0,0,0-1.8,0,2.2,2.2,0,0,0-.8.1,4.19,4.19,0,0,0-1.4.9,2.65,2.65,0,0,0-.6.5l-.6.6a4.34,4.34,0,0,0-.1.5c0,.2-.2.3-.3.5-.1.4-.2.9-.3,1.3a9,9,0,0,0,.1,4,4.7,4.7,0,0,0,.9,1.2,4.13,4.13,0,0,0,1.1.7c.2.1.3.2.5.3a6.48,6.48,0,0,0,5.9-.7,4.24,4.24,0,0,0,.7-.5,5.31,5.31,0,0,0,.8-1.7c.1-.3.2-.7.3-1a6.47,6.47,0,0,0-.1-2.4A9.43,9.43,0,0,0,94.5,29.3Zm-2.4,5.1a2.09,2.09,0,0,0-.4.6l.1.1c0,.1-.1,0-.1-.1a1.64,1.64,0,0,1-1.2.8,2.3,2.3,0,0,1-1.4-.4c-.1-.1-.2-.3-.3-.4a1.78,1.78,0,0,1-.4-1,1.06,1.06,0,0,1-.1-.8,4.87,4.87,0,0,1-.1-1.2,4.28,4.28,0,0,1,.5-1.6,2.75,2.75,0,0,1,1.5-.8,1.71,1.71,0,0,1,1.7,1.3v.3a6.47,6.47,0,0,1,.4,1.3A12.25,12.25,0,0,1,92.1,34.4Z" transform="translate(0 0)"/><path class="cls-1" d="M81.9,27.8a5.5,5.5,0,0,0-.2,2.2,2.72,2.72,0,0,1,.9,0c-.1.5-.3,1-.4,1.5s-.2.8-.3,1.1,0,.6-.1.9a2.36,2.36,0,0,1-.6.9c-.2-.2-.1-.4-.4-.4a2.46,2.46,0,0,0-.1-1.2c-.1-.9-.2-1.9-.3-2.8a12.1,12.1,0,0,0-.5-1.8c.2-.1,0-.2,0-.5a28,28,0,0,1-2.9,0,3.55,3.55,0,0,0-.2,1c-.2,1.6-.8,2.8-.9,4.4l-.7.7-.3-.3a16,16,0,0,1-.7-3.8c.2,0,.4-.1.6-.1a4.52,4.52,0,0,0,.1-2c-1.5.1-2.9,0-4,0,0,.7.1,1.5.1,2.2a3.09,3.09,0,0,1,.8.2,8,8,0,0,1,.3,1.5c.1.2.1.4.2.6a18.46,18.46,0,0,0,.4,2.3,2.35,2.35,0,0,1,.2.8,10.47,10.47,0,0,0,.5,3h3.3a5.64,5.64,0,0,0,.4-1.2c.1-.4.3-.8.4-1.2a14,14,0,0,1,.6-2.8c.2-.1.2-.2.3-.3a.37.37,0,0,1,.1-.3c.4.2.2.7.2,1a2.19,2.19,0,0,0,.3.5c.5,1.2.3,3.2.8,4,1-.1,1.7-.1,2.6-.2a2.35,2.35,0,0,1,.2-.8c.1-.4.3-.8.4-1.1s.1-.7.2-1c.1-.6.4-1.3.6-2,.1-.5.2-.8.3-1.2a7.5,7.5,0,0,1,.5-1.6h.7c.5-.5.2-1.8.3-2.4C84.4,27.5,83.3,27.8,81.9,27.8Z" transform="translate(0 0)"/><path class="cls-1" d="M102.3,27.5a8.45,8.45,0,0,0-1.5,1.8c-.2.1-.3.2-.5.2a12.11,12.11,0,0,1-.1-1.9H98.9a8.33,8.33,0,0,0-1.5.4,4.48,4.48,0,0,0-1.2.1,13.55,13.55,0,0,0-.2,2c.3.2,1.1,0,1.3.4a.64.64,0,0,1,0,.6c0,.4.1.9.1,1.4a21.31,21.31,0,0,1-.2,2.7c.1.2.2.3.2.5a3.89,3.89,0,0,1-1.5.2,17.85,17.85,0,0,0-.2,2.3,25.38,25.38,0,0,1,3.9,0,10.46,10.46,0,0,0,2.5,0,3.41,3.41,0,0,0,0-2,6.75,6.75,0,0,1-1.4-.2c-.5-.6-.3-1.6-.2-2.5a6.72,6.72,0,0,1,.4-2.4,1.61,1.61,0,0,1,1.1-.5,2.38,2.38,0,0,1,1.1.6,2.09,2.09,0,0,0,.4.6,4.86,4.86,0,0,0,1.7,0V27.6A3.66,3.66,0,0,0,102.3,27.5Z" transform="translate(0 0)"/><path class="cls-1" d="M136.2,32a1,1,0,0,0-.7-.2c-.6.1-1.1.8-1.6.8-.3-.2-.7-.4-1-.6a1.75,1.75,0,0,0-1.7.3,3.63,3.63,0,0,0-.7,1.7v.8a3,3,0,0,1,.4,1c-.1.4-.7.5-1,.7a2.07,2.07,0,0,1,.6,1,2.5,2.5,0,0,0-.8,1.8,1.59,1.59,0,0,0,.8,1c1.3.7,3.5.3,4.7-.3a2.35,2.35,0,0,0,.7-2.5c-.2-.2-.4-.5-.6-.7a1.88,1.88,0,0,1-.8-.2c-.5,0-1.1.7-1.5.7h-.2a.85.85,0,0,1-.7-.8c.1-.3.4-.2.7-.2a8.8,8.8,0,0,0,1.5-.5,2.1,2.1,0,0,0,.4-1.1c-.1-.5-.8-1.5,0-1.5a5.54,5.54,0,0,1,.8.6.64.64,0,0,0,.6,0,2.57,2.57,0,0,0,.1-1.5Zm-3.9,6.4a3.55,3.55,0,0,0,.9-.4c.2.1.4.1.6.2s.2.3.4.5v.5c-.4,1-1.8.1-2.5-.1a.65.65,0,0,1,.1-.9C132,38.3,132.2,38.3,132.3,38.4Zm-.1-3.4a1.31,1.31,0,0,1-.3-1.2l.1-.2a.75.75,0,0,1,1-.2C133.6,34,133,35.8,132.2,35Z" transform="translate(0 0)"/><path class="cls-1" d="M121.5,32.4c-.7,0-1.3.8-1.8,1.1-.1.5-.3,1-.4,1.7a2.64,2.64,0,0,0,.7,1.9,3.26,3.26,0,0,0,2.3,1.2,2.17,2.17,0,0,0,2-.8,2.72,2.72,0,0,0,.6-1.7,4,4,0,0,0-.7-2.4A3.78,3.78,0,0,0,121.5,32.4Zm1.2,4.1c-1.4.6-2-.9-1.7-2.1a1.59,1.59,0,0,1,1.2-.9C123.3,33.6,123.4,35.8,122.7,36.5Z" transform="translate(0 0)"/><path class="cls-1" d="M129.9,32.3a2,2,0,0,0-.8-.1c-.6,0-.9.6-1.3.5a.78.78,0,0,1-.4-.4c-.8,0-1.6.4-2.5.5a2.2,2.2,0,0,0-.1.8,2.18,2.18,0,0,0,.8.5,3.79,3.79,0,0,1,0,1.5V36a1.06,1.06,0,0,1-.6.7,3.55,3.55,0,0,0-.2,1,8.61,8.61,0,0,0,3.2,0,.48.48,0,0,0,.2-.6,2.19,2.19,0,0,0-.5-.3,2.09,2.09,0,0,1-.4-.6v-.6c0-.8.1-1.6.7-1.7a.89.89,0,0,1,1,.6,1.27,1.27,0,0,0,.6-.1,3.4,3.4,0,0,0,.3-2Z" transform="translate(0 0)"/><path class="cls-1" d="M117.3,36.1a1.74,1.74,0,0,0-.3,1.4,2,2,0,0,0,1.4.6,2.34,2.34,0,0,0,.7-.7c-.1-.4-.2-.8-.3-1.1A1,1,0,0,0,117.3,36.1Z" transform="translate(0 0)"/><path class="cls-1" d="M54,7.6a7.84,7.84,0,0,0-.2-1.4,5.28,5.28,0,0,1-1.2.3l-.4.2a24.36,24.36,0,0,0-2.7-.1,7.57,7.57,0,0,0-1.5.1,14,14,0,0,0-3.5.2H44c-.2,0-.3-.1-.4-.1l-.2.1a.75.75,0,0,0-.5-.1.63.63,0,0,0-.9-.1,1.13,1.13,0,0,0-.8-.1c-.3,1.4-.2,3.1-.4,4.6a10.48,10.48,0,0,0,2.5-.1,2.77,2.77,0,0,0,.1-.9,2.84,2.84,0,0,1,.4-1.3,3.79,3.79,0,0,1,1.5,0,2.62,2.62,0,0,1,.2,1.5,46.87,46.87,0,0,0,0,5.3,1.72,1.72,0,0,0,.2,1.2c-.2,0-.2.2-.2.3a6.6,6.6,0,0,0-.1,1.4c-.2.2.1.8-.2,1-.6.2-1.1,0-1.6.2,0,.1.1.2.1.3h-.1a3.4,3.4,0,0,1-.1,1h.1c-.1.2-.1.4-.2.6a4.33,4.33,0,0,0,1.6.1h1.1c.6,0,1.3-.1,1.9-.1.3,0,.7.1,1,.1h1.9a15.48,15.48,0,0,0-.1-2.2,4.19,4.19,0,0,1-1.5-.4,2,2,0,0,1,0-1.1,4.33,4.33,0,0,0-.1-.5c0-.6.2-1.2.2-1.8V13.6c0-.9.2-1.7.2-2.6V9.1a2.85,2.85,0,0,1,1.3,0,17.37,17.37,0,0,0,1,1.9,11.24,11.24,0,0,1,2-.2.88.88,0,0,0,.1-.7,4.87,4.87,0,0,0,.1-1.2A5.7,5.7,0,0,1,54,7.6Z" transform="translate(0 0)"/><path class="cls-1" d="M116.3,35.7a2.92,2.92,0,0,1-.9-.2,10.7,10.7,0,0,0-1.6-1.4.85.85,0,0,0-.3-.5l-.8-.8a1,1,0,0,1-.5-.4.78.78,0,0,1,.2-.8c.3-.2.5-.4.8-.6s.5-.4.7-.6a1.38,1.38,0,0,0,.4-.3.76.76,0,0,0,.4-.2.78.78,0,0,1,.8-.2,8.11,8.11,0,0,0,0-2.2c-1.6-.2-3.7-.1-5.4-.2a8.11,8.11,0,0,0,0,2.2.75.75,0,0,0,.8.1,1.75,1.75,0,0,1,.4.5.52.52,0,0,1-.4.2,14.3,14.3,0,0,1-2,1.4c-.3-.1-.2-.4-.2-.7s.1-.7.1-1.2v-2c.1-.8-.1-1.8,0-2.5a5.45,5.45,0,0,0,.1-2.2,3.41,3.41,0,0,0-2,0c-.4.1-.5.3-.8.3a5.66,5.66,0,0,0-1.8.3,13.55,13.55,0,0,0-.2,2,12.25,12.25,0,0,0,1.7.3c0,2.4,0,5.7-.1,8.4a6.6,6.6,0,0,1-.1,1.4,3.08,3.08,0,0,1-1.3.3A12.5,12.5,0,0,0,104,38a7.39,7.39,0,0,0,2.1,0l.3.1a1.39,1.39,0,0,1,.9,0,1.06,1.06,0,0,1,.8-.1c.3-.2.4,0,.6-.2,0,.1-.1.2.1.2s.1-.3.2-.2,0,.2.1.2.1-.2.2-.3,0,.1.1.2h.3a3.08,3.08,0,0,0,0-1.9c-.2-.2-.5-.1-.7-.3v-.1c.2-.5-.3-1.9.3-2.2a1.78,1.78,0,0,1,.7.8c.1.1.1.2.3.3s.3.4.4.5l.3.3c.4.6-.1.8-.5.7a.37.37,0,0,0,.2.5c-.3.1-.2.9-.2,1.4h.9c.1-.1.1-.2.2-.3l.1.1.3-.1.1.1a1.1,1.1,0,0,1,.8,0h.2l.1-.2h.5v.2h.3c.1.1-.1-.2,0-.1s.1.3.2.2-.1-.2,0-.2h.5c0,.1-.2.1-.1.2a10.87,10.87,0,0,1,1.8.1,4.1,4.1,0,0,0-.1-1.1.37.37,0,0,0,.1-.3C116.4,36.2,116.3,36,116.3,35.7Z" transform="translate(0 0)"/><path class="cls-1" d="M70.6,19.2h-.1a1,1,0,0,1-.5.4l-.2-.1a38.42,38.42,0,0,0,0-4.8,4.38,4.38,0,0,0-.8-2.5,2,2,0,0,0-.8-.4.55.55,0,0,0-.5-.3l-.2-.2a.75.75,0,0,0-.5.1v-.2a4.81,4.81,0,0,0-2.2.1,3.13,3.13,0,0,1-1,.5c-.1-.1-.1-.1-.2-.1l-.3.3c-.3-.2-.6.4-1,.3a.78.78,0,0,0-.4.4h-.2c-.1.6.1,1.1,0,1.7,0,.1.1.2.2.3,0,.3-.4.1-.3.4a1.42,1.42,0,0,1,.6.2,1.7,1.7,0,0,1,1,0c.1-.1.3-.2.4-.3-.1-.3.2-.6.1-.9a7.64,7.64,0,0,1,.9-.9,2.2,2.2,0,0,0,.8-.1,3,3,0,0,1,1,.4,1.85,1.85,0,0,1,.2.7.76.76,0,0,1,.2.5c-.1.1-.2.1-.2.2s.1.1.2.2a.76.76,0,0,0-.5.2c-.3.1-1,.1-1.4.2-.1.2.2-.1.2.1s-.3,0-.4-.1a5.31,5.31,0,0,0-1.7.8c0,.1.2.1.1.1h-.3a2.44,2.44,0,0,0-1.1.9c-.5.3-1.3,1.4-.8,1.8l-.3.1a1.49,1.49,0,0,0,.2.9.67.67,0,0,0,.3.8.35.35,0,0,1,.2-.1c.1.1.2.3.1.4a.68.68,0,0,0,.6.4c.1.1.3.2.4.3h.4a1.8,1.8,0,0,0,1,.2.35.35,0,0,0,.2.1,5.85,5.85,0,0,1,1.3-.2c.4-.7.9-1.4,1.3-2.2.2,0,.3.2.3.4-.1,0-.2,0-.2.1a7.72,7.72,0,0,1,.2,1.5,24.2,24.2,0,0,0,3.8.2,2.08,2.08,0,0,0,.1-1.1A2.46,2.46,0,0,0,70.6,19.2Zm-3.9-1.7a1.62,1.62,0,0,1-1.2,1.6,2.44,2.44,0,0,1-1.2,0H64a.8.8,0,0,1-.2-1,.76.76,0,0,0,.2-.5,13.36,13.36,0,0,1,1.8-.7c0-.1,0-.2.2-.2s.2,0,.3,0A.6.6,0,0,1,66.7,17.5Z" transform="translate(0 0)"/><path class="cls-1" d="M103.7,13.2l.2.2a2.77,2.77,0,0,0,.9-.1,9.7,9.7,0,0,0-.1-1.7h-1.3l-.6-.6a10.07,10.07,0,0,0,.1-3,6.24,6.24,0,0,0-1.2-.1,6.6,6.6,0,0,1-1.6,2.8c0,.2-.2.4-.3.6a6.47,6.47,0,0,0-1.3.4,6,6,0,0,0,0,1.9c.1.1.2-.1.3-.1a4.33,4.33,0,0,0,.5.1c.2,0,.3,0,.4-.1a2.3,2.3,0,0,1,.2,1.4.76.76,0,0,0-.1.8,4.31,4.31,0,0,0,0,1.6v1.2a6.15,6.15,0,0,0,.9,2.9c.2.2.4.3.6.5a4.06,4.06,0,0,0,1.9.4,5.36,5.36,0,0,0,1.1-.5,1.38,1.38,0,0,0,.4-.3,3.31,3.31,0,0,0,0-1.4,5,5,0,0,1-1.3-.5,2.36,2.36,0,0,1-.7-1.6,6.15,6.15,0,0,1,0-2.7l.3-.6c0-.3-.1-.6-.1-.8A1,1,0,0,1,103.7,13.2Z" transform="translate(0 0)"/><path class="cls-1" d="M81.9,19.5a18.76,18.76,0,0,1,.1-5.3c-.2-1-.3-2.2-1.4-2.2h0a.43.43,0,0,0-.4-.4,1.88,1.88,0,0,0-.8-.2,7.08,7.08,0,0,0-1.5.1c-.4,0-.7,0-.8.4a1.09,1.09,0,0,0-.8.8l-.6.3c-.3-.5-.2-1.1-.5-1.6-.7.2-1.6.1-1.9.7a1.18,1.18,0,0,0-1,.1A2.74,2.74,0,0,1,71,12a6.48,6.48,0,0,0,.2,1.9c.3.5,1.3.1,1.6.6a2.2,2.2,0,0,0,.1.8,21.74,21.74,0,0,0-.2,3.6c0,.2.4.3.2.4s-.1-.1-.2-.1c.1.9-1.2.2-1.4.9a1.1,1.1,0,0,0,0,.8,1.23,1.23,0,0,0,.2,1c2.1-.1,4.2.2,5.9-.1a5.44,5.44,0,0,0,0-1.8c-.4-.2-1.1-.1-1.4-.3a19.53,19.53,0,0,1-.3-3.4c.3-.5.1-1.1.4-1.6a4.34,4.34,0,0,1,.6-.7c.2,0,.3-.1.5-.1.4.3,1,.3,1.1.9,0,.2-.1.4-.1.6a25.11,25.11,0,0,0,.4,2.7,9.63,9.63,0,0,0,0,2.4,2.44,2.44,0,0,0,0,1.2,34.41,34.41,0,0,0,4.6.3,10.87,10.87,0,0,0,.1-1.8C83.1,19.8,81.9,20,81.9,19.5Z" transform="translate(0 0)"/><path class="cls-1" d="M90.8,15.9a1.69,1.69,0,0,0-1-.3c-.9-.4-1.9-.8-2.8-1.2a1.13,1.13,0,0,1-.3-1.1c.5-.4,1.2,0,1.8-.1a2.21,2.21,0,0,1,1.3,1,.71.71,0,0,0,.3.6l1.6-.1a24.38,24.38,0,0,0,.1-2.7l.1-.2c-.9-.3-1.6-.6-2.4-.9a9.91,9.91,0,0,0-3.4.4c-.1,0-.1.1-.1.2h-.3a1.56,1.56,0,0,0-.8.6,1.58,1.58,0,0,0-.7.7,3.06,3.06,0,0,0-.3,2.3,1.81,1.81,0,0,0,1.4,1.5c1,1.1,2.8,1.4,4.1,2.2.6.9-1,1.2-2,1.1a2.13,2.13,0,0,1-1.2-.7c-.1-.1-.1-.3-.2-.4a.6.6,0,0,1-.3-.6.37.37,0,0,1-.3-.1.6.6,0,0,0,.1-.4,3.81,3.81,0,0,0-1.5.1.23.23,0,0,0,.1.4c-.4.6-.1,1.8-.1,2.6a10.64,10.64,0,0,0,2.5.9,10.62,10.62,0,0,0,1.9.4,2.92,2.92,0,0,0,.9-.2h.3c.1-.1.2-.2.3-.2a5,5,0,0,0,1.2-.2,2.09,2.09,0,0,1,.6-.4,5.07,5.07,0,0,0,.7-1.5V19c0-.2.1-.3.1-.5a2.73,2.73,0,0,0-.8-1.9A5.49,5.49,0,0,0,90.8,15.9Z" transform="translate(0 0)"/><path class="cls-1" d="M134.7,20.7v-.8a5.85,5.85,0,0,0-1.3-.2h0a4.4,4.4,0,0,1,.2-2.8V13.5a5.36,5.36,0,0,1-.5-1.1c-.3-.1-.5-.5-.8-.6s-.4-.1-.6-.1-.3-.2-.5-.3h-.8c-1.5.1-2.1,1.2-3,1.8-.4-.3-.2-1.1-.4-1.5a11,11,0,0,0-1.8.2,10.16,10.16,0,0,0-2.5.6,2,2,0,0,0,0,1.1V14c.3.4,1.4.1,1.6.7,0,.3-.1.5-.1.8s.1.2.1.4-.1.3-.1.4c0,1,0,2.2-.1,3.3a6.11,6.11,0,0,1-1.2.5,3.4,3.4,0,0,1-.1,1c0,.2.1.3.1.4a1.27,1.27,0,0,0-.1.6,1.06,1.06,0,0,0,.8-.1,2.44,2.44,0,0,0,1.2,0,25.41,25.41,0,0,0,3.9-.1,4.88,4.88,0,0,0,.1-1.7c-.2-.2-.5-.2-.7-.4l-.6-.6a2.44,2.44,0,0,1,0-1.2V16.2a3.4,3.4,0,0,1-.1-1,2.18,2.18,0,0,1,.5-.8,2,2,0,0,1,1.7-.2c.8.5.5,1.4.5,2.2a31.23,31.23,0,0,1,.1,4.3.35.35,0,0,1,.1.2,1.1,1.1,0,0,0,0,.8,1.27,1.27,0,0,0,.6-.1,5,5,0,0,0,1.2.2c.1,0,.2.1.3.1h2.4a2.54,2.54,0,0,0-.2-1.2S134.7,20.8,134.7,20.7Z" transform="translate(0 0)"/><path class="cls-1" d="M31,41.5c-1.4,0-2.7-.4-3.9,0v.3l.1.1c.9,0,2.6,0,4.6.1.2,0,.3-.1.4-.1a2.49,2.49,0,0,0,1.9-.2A10.8,10.8,0,0,0,31,41.5Z" transform="translate(0 0)"/><path class="cls-1" d="M34,10.1c0-.4-.1-1.3-.5-1.4.1,5-3.2,7.1-5.6,9.9,0,.9-.7,1.5-.9,2.4-.2.5,0,1.2-.5,1.3a25.92,25.92,0,0,1-.4,4.8,38.52,38.52,0,0,1,.8,4.9,2.65,2.65,0,0,1,.5.6c1-1.3,1.6-3,2.6-4.3a29,29,0,0,1,3.6-3.4,6.76,6.76,0,0,1,1.8-2.6c.5-1.7,1.4-3.1,1.7-5-.8-1.5-.7-3.5-1.4-4.9A12.42,12.42,0,0,0,34,10.1ZM29.5,24.8c.1-2.2,2.9-5.5,3.4-6A58.2,58.2,0,0,0,29.5,24.8Zm4.4-7.9-.6,1.2a8.73,8.73,0,0,1,.5-1.3,1.7,1.7,0,0,0,.1-.7A1.1,1.1,0,0,1,33.9,16.9Z" transform="translate(0 0)"/></svg>