<?xml version="1.0" encoding="UTF-8" standalone="no"?>
<!DOCTYPE svg PUBLIC "-//W3C//DTD SVG 1.1//EN" "http://www.w3.org/Graphics/SVG/1.1/DTD/svg11.dtd">
<svg width="100%" height="100%" viewBox="0 0 4909 1619" version="1.1" xmlns="http://www.w3.org/2000/svg" xmlns:xlink="http://www.w3.org/1999/xlink" xml:space="preserve" xmlns:serif="http://www.serif.com/" style="fill-rule:evenodd;clip-rule:evenodd;stroke-linejoin:round;stroke-miterlimit:2;">
    <g transform="matrix(1,0,0,1,-43.052892,-103.019896)">
        <g>
            <path d="M1977.9,699.5C1977.9,776.7 2019.4,758.6 2019.4,789.7C2019.4,820.8 2010.3,807.9 1983.1,807.9L1879.9,807.9C1853.9,807.9 1843.6,803.4 1843.6,789.7C1843.6,758.6 1886.4,776.7 1886.4,699.5L1886.4,425.7C1886.4,406.2 1878,397.1 1857.2,397.1C1814.4,397.1 1802,419.8 1778.7,463.9C1770.9,480.1 1764.4,487.9 1754.7,487.9C1745,487.9 1737.8,476.9 1738.5,459.3C1739.8,423.6 1743,399 1748.2,380.8C1753.4,361.3 1763.1,353.5 1802.7,353.5L2061.6,353.5C2101.2,353.5 2110.9,361.3 2115.5,380.1C2120.7,398.9 2124.6,423.6 2125.2,459.3C2125.8,476.2 2123.3,487.9 2109.6,487.9C2095.9,487.9 2093.4,480.1 2084.9,463.9C2062.2,419.1 2049.2,396.4 2006.4,396.4C1963.6,396.4 1977.8,406.1 1977.8,425.6L1977.8,699.4L1977.9,699.5Z" style="fill:rgb(0,121,140);fill-rule:nonzero;"/>
            <path d="M2397.1,545.7C2397.1,571.7 2383.5,588.5 2365.3,589.2C2333.5,589.2 2334.8,555.5 2303.7,555.5C2272.6,555.5 2258.9,582.8 2258.9,630.1L2258.9,717.7C2258.9,778 2290,763.1 2290,791.7C2290,820.3 2279.6,807.9 2261.4,807.9L2168.6,807.9C2150.4,807.9 2138.7,804 2138.7,791C2138.7,763.1 2171.1,778 2171.1,717.7L2171.1,594.4C2171.1,576.2 2164,564.6 2151,554.8C2144.5,550.3 2138.7,545.7 2138.7,536.6C2138.7,527.5 2143.9,521.7 2159.5,514.5C2183.5,502.8 2223.7,491.1 2234.1,490.5C2245.1,490.5 2249.7,497 2249.7,510L2249.7,548.3C2273.7,508.7 2308.1,489.9 2339.3,489.9C2370.5,489.9 2397.1,513.9 2397.1,545.7Z" style="fill:rgb(0,121,140);fill-rule:nonzero;"/>
            <path d="M2767,768.9C2767,791 2731.3,813 2700.2,813C2669.1,813 2654.8,797.4 2645,765C2614.5,798.7 2570.4,813.7 2531.4,813.7C2459.4,813.7 2412.6,772.2 2412.6,718.3C2412.6,664.4 2467.1,611.2 2559.3,611.2C2651.5,611.2 2589.2,613.1 2611.2,616.4C2599.5,575.5 2586.5,543.1 2537.9,543.1C2489.3,543.1 2482.1,555.4 2458.7,568.4C2446.4,576.2 2432.7,566.5 2442.5,550.2C2458.7,522.9 2508,489.9 2570.3,489.9C2632.6,489.9 2678,547 2692.3,600.9L2724.1,722.9C2731.2,749.5 2740.3,758.6 2754.6,757.9C2761.7,757.9 2766.9,761.1 2766.9,768.9L2767,768.9ZM2633.9,716.3C2632,705.3 2626.1,689 2620.3,666.3C2615.8,651.4 2590.4,644.9 2569.7,644.9C2523.6,644.9 2496.4,668.3 2496.4,704C2497,741 2524.3,768.2 2566.5,768.2C2608.7,768.2 2639.2,742.9 2634,716.3L2633.9,716.3Z" style="fill:rgb(0,121,140);fill-rule:nonzero;"/>
            <path d="M3153.7,734.5C3162.1,774.1 3188.1,768.9 3188.1,791.6C3188.1,814.3 3177.1,807.8 3159.5,807.8L3068.7,807.8C3050.5,807.8 3039.5,803.9 3039.5,790.9C3039.5,769.5 3073.2,771.4 3064.8,729.3L3044.7,626.8C3036.9,585.9 3024.6,545.7 2981.8,546.3C2947.4,546.3 2916.3,577.4 2916.3,634.6L2916.3,717.7C2916.3,778 2947.4,763.1 2947.4,791.7C2947.4,820.3 2937,807.9 2918.8,807.9L2826,807.9C2807.8,807.9 2796.1,804 2796.1,791C2796.1,763.1 2828.5,778 2828.5,717.7L2828.5,594.4C2828.5,576.2 2821.4,564.6 2808.4,554.8C2801.9,550.3 2796.1,545.7 2796.1,536.6C2796.1,527.5 2801.3,521.7 2816.9,514.5C2840.9,502.8 2881.1,491.1 2891.5,490.5C2902.5,490.5 2907.1,497 2907.1,510L2907.1,548.9C2931.8,510 2971.3,489.8 3012.9,489.8C3086.9,489.8 3114.8,537.8 3131.7,623.5L3153.8,734.5L3153.7,734.5Z" style="fill:rgb(0,121,140);fill-rule:nonzero;"/>
            <path d="M3239.4,788.4C3228.4,761.8 3221.2,743.6 3215.4,721.6C3212.2,707.3 3216,700.2 3223.8,696.3C3232.9,691.8 3243.3,698.9 3257.5,711.9C3299.7,753.4 3336,777.4 3374.3,777.4C3412.6,777.4 3411.9,765.1 3411.9,746.3C3411.9,727.5 3378.2,705.4 3321.7,681.4C3271.7,660 3224.4,634.7 3224.4,580.8C3224.4,526.9 3282.2,490 3332.8,490C3383.4,490 3391.2,498.4 3410,499.1C3423.6,499.1 3425.6,490 3437.3,490C3449,490 3452.2,497.1 3462.6,515.3C3471,531.5 3474.9,540.6 3480.8,554.2C3487.3,571.7 3484.7,580.8 3476.3,584.7C3464,591.2 3452.9,579.5 3432.2,564.6C3406.9,546.4 3373.8,527.6 3345.2,527.6C3316.6,527.6 3305.6,541.9 3305.6,557.5C3305.6,580.2 3332.9,593.8 3386.1,616.6C3454.9,647.1 3499,673.1 3499,719.8C3499,766.5 3445.1,814.5 3377,814.5C3308.9,814.5 3303,801.5 3289.4,801.5C3275.8,801.5 3276.4,814.5 3264.1,814.5C3251.8,814.5 3247.9,809.3 3239.4,788.5L3239.4,788.4Z" style="fill:rgb(0,121,140);fill-rule:nonzero;"/>
            <path d="M3576.2,598.9C3576.2,554.1 3545.1,558.7 3545.1,539.2C3545.1,519.7 3549.6,525.6 3565.2,518.4C3592.5,506.1 3639.2,490.5 3649.6,490.5C3660,489.9 3664.5,496.3 3664.5,510L3663.9,598.9L3663.9,717.7C3663.9,778 3695.7,763.1 3695.7,791.7C3695.7,820.3 3684.7,807.9 3667.1,807.9L3574.3,807.9C3555.5,807.9 3544.4,804 3544.4,791C3544.4,763.1 3576.2,778 3576.2,717.7L3576.2,598.9ZM3559.3,414.6C3559.9,384.7 3594.3,351.7 3627.4,353C3650.8,353.6 3668.3,371.8 3668.3,393.9C3667,425.7 3632,454.9 3598.2,454.2C3573.5,453.6 3558.6,436 3559.3,414.6Z" style="fill:rgb(0,121,140);fill-rule:nonzero;"/>
            <path d="M3954.5,748.1C3944.8,777.3 3911,814.3 3856.5,814.3C3802,814.3 3764.4,778 3764.4,711.8L3764.4,678.1C3764.4,620.3 3765,571 3766.3,537.3L3748.8,537.3C3731.3,537.3 3726.1,531.5 3726.1,520.4C3726.1,509.3 3728.7,504.8 3735.8,498.3C3759.8,473.6 3791,448.3 3817.6,432.1C3832.5,423.7 3837.7,423 3841.6,423C3850.7,423 3856.5,431.4 3855.9,441.2C3854,458.7 3853.3,476.2 3852.7,496.4L3916.9,496.4C3929.2,496.4 3939.6,499.6 3935.7,519.1C3931.8,538.6 3920.8,541.8 3907.8,541.2L3852,539.3C3852,575 3852,619.1 3851.4,678.2C3850.8,736 3859.8,753.5 3889,753.5C3918.2,753.5 3922.1,745.1 3935.7,734.7C3948,725.6 3959.1,734.7 3954.5,748.3L3954.5,748.1Z" style="fill:rgb(0,121,140);fill-rule:nonzero;"/>
            <path d="M4022.6,598.9C4022.6,554.1 3991.5,558.7 3991.5,539.2C3991.5,519.7 3996,525.6 4011.6,518.4C4038.9,506.1 4085.6,490.5 4096,490.5C4106.4,489.9 4110.9,496.3 4110.9,510L4110.3,598.9L4110.3,717.7C4110.3,778 4142.1,763.1 4142.1,791.7C4142.1,820.3 4131.1,807.9 4113.5,807.9L4020.7,807.9C4001.9,807.9 3990.8,804 3990.8,791C3990.8,763.1 4022.6,778 4022.6,717.7L4022.6,598.9ZM4005.8,414.6C4006.4,384.7 4040.8,351.7 4073.9,353C4097.3,353.6 4114.8,371.8 4114.8,393.9C4113.5,425.7 4078.5,454.9 4044.7,454.2C4020,453.6 4005.1,436 4005.8,414.6Z" style="fill:rgb(0,121,140);fill-rule:nonzero;"/>
            <path d="M4184.2,664.4C4184.2,567.1 4260.1,489.8 4363.3,489.8C4466.5,489.8 4514.5,556 4514.5,642.3C4514.5,728.6 4439.9,814.3 4336.7,814.3C4233.5,814.3 4184.2,756.5 4184.2,664.4ZM4428.2,687.8C4428.2,612.5 4389.9,532.7 4334.1,532.7C4278.3,532.7 4269.9,576.8 4269.9,622.9C4269.9,698.8 4308.8,771.5 4364.6,771.5C4420.4,771.5 4428.2,732.6 4428.2,687.8Z" style="fill:rgb(0,121,140);fill-rule:nonzero;"/>
            <path d="M4916.8,734.5C4925.2,774.1 4951.2,768.9 4951.2,791.6C4951.2,814.3 4940.2,807.8 4922.6,807.8L4831.8,807.8C4813.6,807.8 4802.6,803.9 4802.6,790.9C4802.6,769.5 4836.3,771.4 4827.9,729.3L4807.8,626.8C4800,585.9 4787.7,545.7 4744.9,546.3C4710.5,546.3 4679.4,577.4 4679.4,634.6L4679.4,717.7C4679.4,778 4710.5,763.1 4710.5,791.7C4710.5,820.3 4700.1,807.9 4681.9,807.9L4589.1,807.9C4570.9,807.9 4559.2,804 4559.2,791C4559.2,763.1 4591.6,778 4591.6,717.7L4591.6,594.4C4591.6,576.2 4584.5,564.6 4571.5,554.8C4565,550.3 4559.2,545.7 4559.2,536.6C4559.2,527.5 4564.4,521.7 4580,514.5C4604,502.8 4644.2,491.1 4654.6,490.5C4665.6,490.5 4670.2,497 4670.2,510L4670.2,548.9C4694.9,510 4734.4,489.8 4776,489.8C4850,489.8 4877.9,537.8 4894.8,623.5L4916.9,734.5L4916.8,734.5Z" style="fill:rgb(0,121,140);fill-rule:nonzero;"/>
            <path d="M2266.8,970.4C2288.9,970.4 2297.3,973.6 2297.3,987.3C2297.3,1008.7 2262.3,1006.8 2262.3,1050.9L2262.3,1396.8C2262.3,1416.9 2255.2,1424.1 2238.9,1424.1C2222.6,1424.1 2215.5,1415 2215.5,1404C2215.5,1393 2209,1376.7 2195.4,1361.8L1925.4,1085.4L1926.7,1343C1926.7,1387.1 1961.7,1384.5 1961.7,1407.2C1961.7,1429.9 1952.6,1423.4 1931.8,1423.4L1874.7,1423.4C1852.6,1423.4 1844.2,1419.5 1844.2,1406.5C1844.2,1385.1 1879.2,1387 1879.2,1342.9L1879.2,1080.1C1879.2,995.7 1836.4,1021.7 1836.4,988C1836.4,954.3 1846.8,969.8 1872.7,969.8L1924.6,969.8C1938.2,969.8 1946,975.6 1955.7,985.4L2214.6,1253.4L2214.6,1050.9C2214.6,1006.8 2178.9,1009.4 2178.9,986.7C2178.9,964 2188.6,970.5 2209.4,970.5L2266.5,970.5L2266.8,970.4Z" style="fill:rgb(0,121,140);fill-rule:nonzero;"/>
            <path d="M2636.7,1340.9C2623.7,1377.2 2569.9,1430.5 2483.6,1430.5C2397.3,1430.5 2329.2,1366.9 2329.2,1278C2329.2,1189.1 2406.4,1106 2497.3,1106C2588.2,1106 2619.9,1152.7 2629,1208.5C2630.9,1218.9 2626.4,1228 2614.1,1233.8C2547.9,1263.7 2495.3,1283.8 2427.9,1308.4C2441.5,1338.2 2471.4,1367.5 2521.3,1367.5C2571.2,1367.5 2592.7,1347.4 2616,1324.7C2629,1311.7 2643.3,1322.1 2636.8,1340.9L2636.7,1340.9ZM2410.9,1230.6C2410.9,1244.9 2412.8,1260.4 2416.1,1271.5C2453.7,1258.5 2490.7,1245.5 2525.8,1230.6C2536.8,1225.4 2545.3,1220.9 2540.7,1204C2531.6,1166.4 2499.8,1143 2468.7,1148.8C2431.1,1153.3 2410.9,1189 2410.9,1230.6Z" style="fill:rgb(0,121,140);fill-rule:nonzero;"/>
            <path d="M2893,1364.3C2883.3,1393.5 2849.5,1430.5 2795,1430.5C2740.5,1430.5 2702.9,1394.2 2702.9,1328L2702.9,1294.3C2702.9,1236.5 2703.5,1187.2 2704.8,1153.5L2687.3,1153.5C2669.8,1153.5 2664.6,1147.7 2664.6,1136.6C2664.6,1125.5 2667.2,1121 2674.3,1114.5C2698.3,1089.8 2729.5,1064.5 2756.1,1048.3C2771,1039.9 2776.2,1039.2 2780.1,1039.2C2789.2,1039.2 2795,1047.6 2794.4,1057.4C2792.5,1074.9 2791.8,1092.4 2791.2,1112.6L2855.4,1112.6C2867.7,1112.6 2878.1,1115.8 2874.2,1135.3C2870.3,1154.8 2859.3,1158 2846.3,1157.4L2790.5,1155.5C2790.5,1191.2 2790.5,1235.3 2789.9,1294.4C2789.3,1352.2 2798.3,1369.7 2827.5,1369.7C2856.7,1369.7 2860.6,1361.3 2874.2,1350.9C2886.5,1341.8 2897.6,1350.9 2893,1364.5L2893,1364.3Z" style="fill:rgb(0,121,140);fill-rule:nonzero;"/>
            <path d="M3403.7,1111.9C3421.9,1111.9 3432.9,1115.8 3432.9,1128.8C3432.9,1152.8 3406.9,1143.7 3384.2,1196.3L3294.6,1404.6C3290.7,1413 3286.2,1420.2 3261.5,1424.7C3238.8,1428.6 3230.4,1426 3226.5,1415L3157.1,1228.1L3090.9,1404.6C3087.7,1413 3077.9,1420.2 3059.8,1424.7C3035.1,1430.5 3026.7,1426 3022.2,1415L2934.6,1197C2913.8,1143.8 2887.2,1152.9 2887.2,1128.2C2887.2,1103.5 2898.2,1112 2915.8,1112L3015.1,1112C3033.3,1112 3045,1115.9 3045,1128.9C3045,1152.9 3007.4,1143.8 3028.8,1197L3080.1,1324.2L3152.8,1130.8C3156,1122.4 3159.9,1115.9 3176.8,1112C3198.9,1106.8 3206.6,1111.4 3210.5,1122.4L3287.7,1324.9L3342.9,1196.4C3365,1143.8 3329.9,1152.9 3329.9,1128.3C3329.9,1103.7 3340.3,1112.1 3357.8,1112.1L3403.9,1112.1L3403.7,1111.9Z" style="fill:rgb(0,121,140);fill-rule:nonzero;"/>
            <path d="M3438.1,1280.6C3438.1,1183.3 3514,1106 3617.2,1106C3720.4,1106 3768.4,1172.2 3768.4,1258.5C3768.4,1344.8 3693.8,1430.5 3590.6,1430.5C3487.4,1430.5 3438.1,1372.7 3438.1,1280.6ZM3682.1,1303.9C3682.1,1228.6 3643.8,1148.8 3588,1148.8C3532.2,1148.8 3523.8,1192.9 3523.8,1239C3523.8,1314.9 3562.7,1387.6 3618.5,1387.6C3674.3,1387.6 3682.1,1348.7 3682.1,1303.9Z" style="fill:rgb(0,121,140);fill-rule:nonzero;"/>
            <path d="M4071.5,1161.8C4071.5,1187.8 4057.9,1204.6 4039.7,1205.3C4007.9,1205.3 4009.2,1171.6 3978.1,1171.6C3947,1171.6 3933.3,1198.9 3933.3,1246.2L3933.3,1333.8C3933.3,1394.1 3964.4,1379.2 3964.4,1407.8C3964.4,1436.4 3954,1424 3935.8,1424L3843,1424C3824.8,1424 3813.2,1420.1 3813.2,1407.1C3813.2,1379.2 3845.6,1394.1 3845.6,1333.8L3845.6,1210.5C3845.6,1192.3 3838.5,1180.7 3825.5,1170.9C3819,1166.4 3813.2,1161.8 3813.2,1152.7C3813.2,1143.6 3818.4,1137.8 3834,1130.6C3858,1118.9 3898.2,1107.2 3908.6,1106.6C3919.6,1106.6 3924.2,1113.1 3924.2,1126.1L3924.2,1164.4C3948.2,1124.8 3982.6,1106 4013.8,1106C4045,1106 4071.6,1130 4071.6,1161.8L4071.5,1161.8Z" style="fill:rgb(0,121,140);fill-rule:nonzero;"/>
            <path d="M4360.2,1194.9L4432.2,1356.5C4445.2,1387.6 4476.3,1388.3 4476.3,1409.7C4476.3,1431.1 4466.6,1424 4446.4,1424L4356.2,1424C4336.7,1424 4327,1420.1 4327,1409.1C4327,1389 4358.8,1391.6 4345.8,1363L4299.1,1260.5L4230.3,1334.5C4230.3,1394.2 4261.4,1379.3 4261.4,1407.8C4261.4,1436.3 4251,1424 4232.8,1424L4140,1424C4121.8,1424 4110.1,1420.1 4110.1,1407.1C4110.1,1379.2 4142.5,1394.1 4142.5,1333.8L4141.9,1071.6C4141.9,1026.8 4110.8,1031.4 4110.8,1011.9C4110.8,992.4 4116,998.9 4131.6,991.8C4158.2,978.8 4204.9,963.2 4215.3,963.2C4225.7,963.2 4230.9,969 4230.9,982.7L4230.3,1071.6L4230.3,1277.3L4328.3,1172.8C4353.6,1146.2 4314.7,1146.2 4314.7,1126.7C4314.7,1107.2 4323.1,1112.4 4340.7,1112.4L4418.6,1112.4C4434.2,1112.4 4443.3,1116.9 4443.3,1126.7C4443.3,1146.2 4412.2,1139.7 4378.4,1175.4L4360.2,1194.9Z" style="fill:rgb(0,121,140);fill-rule:nonzero;"/>
            <g>
                <path d="M1205,1602.4C913.5,1829.2 344.7,1709.4 168.9,1424.3C-142.7,918.9 118,-101.5 1021.9,139.2C1623,299.3 1601.2,1294.1 1205,1602.4ZM1417,869.5C1429.1,577.2 1241.9,207.5 862.9,174C694.5,159.1 518.5,177.6 389.9,277.8C252.5,384.8 178.4,575 152.3,728.8C148.5,751.3 135,833.7 138.9,869.5M154,942.7C125.5,959 156.8,1149.4 172.7,1191.4C185.1,1204.6 195.1,1200.6 206.8,1191.6C241.9,1164.6 283.2,1150.7 328.6,1137C477,1092.3 677.6,1100.7 723.3,945M1426.2,945L819.3,945L807.7,942.7C894.3,1125.8 1129.3,1016.8 1366.5,1156.1L1384.6,1164.9C1400,1131.9 1400.7,1107.5 1402.7,1077.4C1408.3,993.9 1421.5,928.3 1403.9,894.5M1006.3,1457.1C1073,1532 1184.6,1537.2 1254.7,1465.9C1302.7,1417.1 1302.5,1360.3 1199.4,1273C1069.1,1162.6 1073.4,1170.3 925.5,1096.7C881.3,1074.7 844.7,1032.2 806,1004.8C779.9,1180.1 902.5,1340.7 1006.2,1457.1L1006.3,1457.1ZM721.7,1019.1L709.7,1032.2C639,1109.2 550.6,1126 486,1170.4C413.1,1220.5 280.4,1500.2 409.2,1549.8C514.8,1367.9 742.5,1265.7 734.2,1051.2C732.3,1001.9 742.9,986.3 721.6,1019.1L721.7,1019.1ZM724.9,1657.5C889.7,1695.8 1009.4,1617.6 856.4,1331.9L755.5,1162.6C744.1,1251.3 709.4,1278.1 659,1375.5C640.5,1411.2 612.8,1631.5 725,1657.6L724.9,1657.5ZM400.8,1177C239.7,1211.5 144.7,1293.6 274.3,1420.8L400.8,1177ZM1110.5,1120.3C1076.9,1140.3 1223.2,1229.2 1257.7,1260.6C1292.3,1292 1327.3,1309.3 1327.3,1309.3C1327.3,1309.3 1353.1,1317.3 1360.4,1284.2C1376.1,1214 1365.6,1221.3 1277.9,1186.9" style="fill:rgb(0,121,140);fill-rule:nonzero;"/>
                <g>
                    <g>
                        <g>
                            <path d="M758.9,887.1L759,887C757.7,886.7 725.2,661.6 820.5,513.9C838,486.8 859.1,454.1 899.3,427.4C944.9,397.1 971.6,403.3 1020.4,367.8C1068,333.2 1083.8,309.5 1085.7,297.3C1091.1,263.3 1078.1,414 1070.4,512.1C1067.8,545.1 1003.3,679.3 902.6,710C887,714.8 859.8,726.5 820.4,742.9C811.7,746.5 804.5,751.1 797.7,754.6C781.8,776 776.4,792.4 779.6,823C785,875.2 787.2,892.8 758.9,887.1ZM860,634L968,485C968,485 928.325,489.235 860,634Z" style="fill:rgb(0,121,140);"/>
                        </g>
                    </g>
                    <g>
                        <g>
                            <path d="M761.7,882.1C733.4,887.8 729.2,872.2 734.6,820C737.8,789.4 732.4,773 716.5,751.6C709.7,748.1 702.5,743.5 693.8,739.9C654.4,723.5 627.2,711.8 611.6,707C510.9,676.3 446.4,542.1 443.8,509.1C436.1,411 423.1,260.3 428.5,294.3C430.4,306.5 446.2,330.2 493.8,364.8C542.6,400.3 569.3,394.1 614.9,424.4C655.1,451.1 676.2,483.8 693.7,510.9C789,658.6 762.8,881.7 761.6,882L761.7,882.1ZM641,622L568,486C568,486 539.589,446.983 508,443L641,622Z" style="fill:rgb(0,121,140);"/>
                        </g>
                    </g>
                    <circle cx="763.9" cy="301.6" r="51" style="fill:rgb(237,174,73);"/>
                </g>
            </g>
        </g>
    </g>
</svg>
