<?xml version="1.0" encoding="UTF-8" standalone="no"?>
<!DOCTYPE svg PUBLIC "-//W3C//DTD SVG 1.1//EN" "http://www.w3.org/Graphics/SVG/1.1/DTD/svg11.dtd">
<svg width="100%" height="100%" viewBox="0 0 20 20" version="1.1" xmlns="http://www.w3.org/2000/svg" xmlns:xlink="http://www.w3.org/1999/xlink" xml:space="preserve" xmlns:serif="http://www.serif.com/" style="fill-rule:evenodd;clip-rule:evenodd;stroke-linejoin:round;stroke-miterlimit:2;">
    <g transform="matrix(1,0,0,1,-2.24999,-2.25001)">
        <g transform="matrix(1,0,0,1,-3.91432e-06,3.91413e-07)">
            <path d="M12,21.75L12,21.75C16.431,21.75 20.331,18.73 21.442,14.441L21.442,14.44C21.643,13.66 21.75,12.843 21.75,12.001C21.753,10.326 21.322,8.68 20.501,7.221L20.497,7.215L20.494,7.209C18.768,4.148 15.515,2.249 12.001,2.25L11.999,2.25C8.485,2.249 5.232,4.149 3.506,7.21L3.502,7.216L3.499,7.222C2.704,8.634 2.25,10.264 2.25,12C2.249,12.823 2.353,13.643 2.558,14.44L2.558,14.441C3.669,18.73 7.569,21.75 12,21.75ZM9.057,17.02C9.309,17.716 9.614,18.331 9.962,18.841C10.543,19.693 11.224,20.25 12,20.25L12,20.25C12.776,20.25 13.457,19.693 14.038,18.841C14.386,18.331 14.691,17.717 14.943,17.021C13.973,17.174 12.989,17.252 11.999,17.25C10.998,17.25 10.015,17.171 9.057,17.02ZM4.654,15.756C5.514,17.431 6.921,18.753 8.612,19.518C8.114,18.744 7.691,17.778 7.375,16.675C6.438,16.438 5.529,16.129 4.654,15.756ZM19.346,15.756C18.462,16.132 17.553,16.44 16.625,16.675C16.309,17.778 15.886,18.744 15.388,19.518C17.079,18.753 18.487,17.431 19.346,15.756ZM15.702,10.703C14.51,11.065 13.263,11.252 11.999,11.25C10.712,11.25 9.47,11.059 8.298,10.704C8.266,11.127 8.25,11.559 8.25,12C8.25,13.214 8.374,14.369 8.599,15.415C9.699,15.635 10.836,15.75 12,15.75C12,15.75 12.001,15.75 12.001,15.75C13.147,15.752 14.286,15.639 15.401,15.415C15.626,14.37 15.75,13.214 15.75,12C15.75,11.559 15.734,11.126 15.702,10.703ZM4.415,8.749C3.987,9.747 3.75,10.846 3.75,12C3.75,12 3.75,12 3.75,12.001C3.749,12.59 3.812,13.178 3.937,13.753C4.907,14.267 5.931,14.691 7,15.014C6.838,14.067 6.75,13.054 6.75,12C6.75,11.371 6.781,10.757 6.841,10.163C5.978,9.78 5.165,9.305 4.415,8.749ZM19.585,8.75C18.828,9.311 18.013,9.784 17.159,10.163C17.219,10.757 17.25,11.371 17.25,12C17.25,13.054 17.162,14.067 17,15.014C18.056,14.695 19.082,14.273 20.063,13.753C20.185,13.188 20.25,12.602 20.25,12C20.25,12 20.25,11.999 20.25,11.999C20.252,10.879 20.024,9.773 19.585,8.75ZM11.928,3.752C11.182,3.785 10.525,4.334 9.962,5.159C9.28,6.16 8.762,7.561 8.483,9.189C9.589,9.553 10.772,9.75 12,9.75C12,9.75 12.001,9.75 12.001,9.75C13.205,9.752 14.391,9.559 15.517,9.189C15.238,7.561 14.72,6.16 14.038,5.159C13.457,4.307 12.776,3.75 12,3.75L11.928,3.752ZM15.385,4.477C16.07,5.541 16.614,6.968 16.933,8.614C17.611,8.282 18.258,7.882 18.861,7.416C17.992,6.115 16.78,5.104 15.385,4.477ZM8.615,4.477C7.22,5.104 6.008,6.115 5.139,7.416C5.737,7.877 6.382,8.279 7.067,8.613C7.387,6.967 7.93,5.54 8.615,4.477Z" fill="currentColor"/>
        </g>
    </g>
</svg>
